<svg xmlns="http://www.w3.org/2000/svg" xmlns:xlink="http://www.w3.org/1999/xlink" width="88.574" height="60" viewBox="0 0 88.574 60">
  <defs>
    <clipPath id="clip-path">
      <rect id="長方形_15" data-name="長方形 15" width="88.574" height="60" fill="none"/>
    </clipPath>
  </defs>
  <g id="logo" transform="translate(0 0)">
    <g id="グループ_1" data-name="グループ 1" transform="translate(0 0)" clip-path="url(#clip-path)">
      <path id="パス_1" data-name="パス 1" d="M133.514,31.273h-2.776a.394.394,0,0,0-.393.393l0,13.878a.121.121,0,0,1-.212.079L117.886,31.466a.735.735,0,0,0-.556-.254h-2.238a.394.394,0,0,0-.393.393V52.763a.394.394,0,0,0,.393.393h2.776a.394.394,0,0,0,.393-.393l.009-15.024a.123.123,0,0,1,.215-.082l15.048,16.877a.212.212,0,0,0,.16.072.218.218,0,0,0,.077-.014.214.214,0,0,0,.138-.2V31.666a.394.394,0,0,0-.393-.393" transform="translate(-45.333 -12.336)" fill="#fff"/>
      <path id="パス_2" data-name="パス 2" d="M42,30.634a11.3,11.3,0,1,0,8.3,3.323A11.579,11.579,0,0,0,42,30.634m5.7,17.438a8.272,8.272,0,0,1-11.408,0,8.877,8.877,0,0,1,0-11.768,8.272,8.272,0,0,1,11.408,0,8.877,8.877,0,0,1,0,11.768" transform="translate(-12.02 -12.108)" fill="#fff"/>
      <path id="パス_3" data-name="パス 3" d="M92.968,31.273H79.509a.393.393,0,0,0-.393.393v21.1a.393.393,0,0,0,.393.393H92.968a.393.393,0,0,0,.393-.393V50.18a.393.393,0,0,0-.393-.392H82.862a.184.184,0,0,1-.184-.184V43.9a.184.184,0,0,1,.184-.184H92.3a.394.394,0,0,0,.393-.393V40.745a.394.394,0,0,0-.393-.393H82.862a.184.184,0,0,1-.184-.184V34.825a.184.184,0,0,1,.184-.184H92.968a.394.394,0,0,0,.393-.393V31.666a.394.394,0,0,0-.393-.393" transform="translate(-31.27 -12.36)" fill="#fff"/>
      <path id="パス_4" data-name="パス 4" d="M54.287,46.9l-2.707-.879A.528.528,0,0,0,51,46.2a26.834,26.834,0,0,1-2.248,2.552,26.539,26.539,0,1,1,0-37.507A26.9,26.9,0,0,1,51,13.8a.529.529,0,0,0,.579.184l2.707-.879A.328.328,0,0,0,54.5,12.9a.311.311,0,0,0-.042-.281,30.33,30.33,0,0,0-3.242-3.829,30.016,30.016,0,1,0,0,42.426,30.368,30.368,0,0,0,3.242-3.829A.311.311,0,0,0,54.5,47.1a.328.328,0,0,0-.209-.207" transform="translate(0 0)" fill="#fff"/>
    </g>
  </g>
</svg>
