<svg xmlns="http://www.w3.org/2000/svg" width="4065.24" height="409" viewBox="0 0 4065.24 409">
  <g id="marquee" transform="translate(-561.76 -3021)">
    <path id="Sorry" d="M867.08,88.171a87.1,87.1,0,0,1-11.755-.6,93.3,93.3,0,0,1-10.142-2.208l-.371-.1V51.466l.633.175a124.2,124.2,0,0,0,13.518,3.182,52.748,52.748,0,0,0,7.318.594c6.521,0,11.363-1.078,14.391-3.2a30.036,30.036,0,0,0,7.756-7.95c.654-1.052,3.059-6.535,7.149-16.3,4.056-9.681,7.054-17.007,8.914-21.782l-79.261-220.57h41.813l.113.344L924-41.336l57.353-173.05h40.82l-.248.673c-5.033,13.641-16.388,45.219-33.749,93.857-12.988,36.579-24.009,66.819-32.755,89.878C945.079-2.8,936.14,19.377,928.848,35.949c-7.3,16.6-13.164,28.048-17.425,34.039a37.813,37.813,0,0,1-7.64,7.969,42.391,42.391,0,0,1-9.953,5.685,57.92,57.92,0,0,1-12.238,3.4A87.548,87.548,0,0,1,867.08,88.171Zm-21.268-3.681a90.617,90.617,0,0,0,9.657,2.087,86.159,86.159,0,0,0,11.611.594,86.56,86.56,0,0,0,14.345-1.116,56.918,56.918,0,0,0,12.026-3.34,41.385,41.385,0,0,0,9.718-5.549,36.807,36.807,0,0,0,7.438-7.758c4.221-5.936,10.05-17.329,17.324-33.862,7.285-16.557,16.218-38.722,26.551-65.88,8.744-23.052,19.762-53.285,32.748-89.858,17.083-47.858,28.351-79.2,33.5-93.195H982.073L923.995-38.147,866.319-213.386H826.651L905.558,6.2l-.068.174c-1.858,4.777-4.883,12.173-8.992,21.98-4.176,9.97-6.54,15.35-7.227,16.448l-.008.012a31.035,31.035,0,0,1-8.017,8.22,17.37,17.37,0,0,1-6.194,2.55,40.647,40.647,0,0,1-8.772.836,53.744,53.744,0,0,1-7.46-.6,120.323,120.323,0,0,1-13.009-3.034ZM135.8,9.087a183.864,183.864,0,0,1-25.945-1.753A136.992,136.992,0,0,1,86.867,2.073,109.075,109.075,0,0,1,66.842-6.7,96.891,96.891,0,0,1,49.791-19,90.746,90.746,0,0,1,36.213-34.2,87.45,87.45,0,0,1,26.6-51.887a98.392,98.392,0,0,1-5.646-20.161,125.25,125.25,0,0,1-1.68-22.62l.006-.494H57.589l.027.472a101.374,101.374,0,0,0,3.625,22.505A64.36,64.36,0,0,0,69.315-54.4,57.565,57.565,0,0,0,80.982-41.755,64.34,64.34,0,0,0,96.4-32.714a88.932,88.932,0,0,0,19.2,5.435A136.57,136.57,0,0,0,138.6-25.463a137.964,137.964,0,0,0,21.291-1.592,111.409,111.409,0,0,0,19.285-4.771,72.009,72.009,0,0,0,15.445-7.362,46.141,46.141,0,0,0,10.99-9.754,38.617,38.617,0,0,0,6.58-12.15,46.761,46.761,0,0,0,2.2-14.6c0-7.881-1.246-14.718-3.7-20.319a32.2,32.2,0,0,0-4.609-7.559,30.736,30.736,0,0,0-6.446-5.857,95.11,95.11,0,0,0-19.364-9.282,235.546,235.546,0,0,0-28-8.02l-39.741-8.987a304.718,304.718,0,0,1-33.307-9.252c-9.181-3.227-16.575-6.655-21.976-10.189a65.234,65.234,0,0,1-12.327-10.4,57.417,57.417,0,0,1-8.814-12.7,62.35,62.35,0,0,1-5.285-14.986,81.082,81.082,0,0,1-1.759-17.244,101.992,101.992,0,0,1,1.719-18.978,85.445,85.445,0,0,1,5.16-17.213,81.22,81.22,0,0,1,8.6-15.435,88.721,88.721,0,0,1,12.038-13.645A83.982,83.982,0,0,1,71.77-286.926a96.236,96.236,0,0,1,18.042-7.968,123.383,123.383,0,0,1,20.879-4.775,168.753,168.753,0,0,1,23.711-1.59,172.82,172.82,0,0,1,22.263,1.4,143.22,143.22,0,0,1,20.536,4.19,125.5,125.5,0,0,1,18.8,6.987,118.328,118.328,0,0,1,17.066,9.783,71.253,71.253,0,0,1,14.21,12.891,70.928,70.928,0,0,1,10.151,16.247,87.012,87.012,0,0,1,6.083,19.578A122.768,122.768,0,0,1,245.54-207.3v.5H207.255l-.055-.437a100.744,100.744,0,0,0-4.669-20.716,53.951,53.951,0,0,0-8.011-15.187,50.387,50.387,0,0,0-10.565-9.946,60.656,60.656,0,0,0-13.729-7.117,86.521,86.521,0,0,0-16.914-4.281,132.712,132.712,0,0,0-20.107-1.43c-11.614,0-21.729,1.236-30.065,3.674a57.138,57.138,0,0,0-11.3,4.577,41.085,41.085,0,0,0-8.817,6.387A51.005,51.005,0,0,0,71.6-235.45a44.156,44.156,0,0,0-3.8,18.169,42.623,42.623,0,0,0,1.109,9.943,32.459,32.459,0,0,0,3.318,8.482,30.95,30.95,0,0,0,5.528,7.05,37.733,37.733,0,0,0,7.761,5.641h0c3.88,2.1,10.313,4.508,19.123,7.148,8.835,2.647,20.3,5.6,34.069,8.779l41.139,9.386a174.984,174.984,0,0,1,26.438,8.062A92.208,92.208,0,0,1,225.963-142.2a69.793,69.793,0,0,1,12.322,11.53,64.442,64.442,0,0,1,8.805,13.875,71.9,71.9,0,0,1,5.28,16.2,93.568,93.568,0,0,1,1.757,18.51A110.069,110.069,0,0,1,251.9-59.347a78.407,78.407,0,0,1-6.69,19.282A66.774,66.774,0,0,1,234.05-24.257a72.451,72.451,0,0,1-15.616,12.305,143.433,143.433,0,0,1-18.507,9.206A150.437,150.437,0,0,1,179.984,3.83a166.917,166.917,0,0,1-21.377,3.944A193.861,193.861,0,0,1,135.8,9.087ZM20.266-94.161a123.9,123.9,0,0,0,1.671,21.945,97.4,97.4,0,0,0,5.588,19.956A86.45,86.45,0,0,0,37.03-34.775,89.751,89.751,0,0,0,50.46-19.744,95.886,95.886,0,0,0,67.336-7.574a108.066,108.066,0,0,0,19.841,8.7A135.969,135.969,0,0,0,110,6.345a182.871,182.871,0,0,0,25.8,1.742A192.855,192.855,0,0,0,158.49,6.78a165.918,165.918,0,0,0,21.248-3.92A149.427,149.427,0,0,0,199.548-3.67a142.41,142.41,0,0,0,18.377-9.142,71.45,71.45,0,0,0,15.4-12.134A65.784,65.784,0,0,0,244.32-40.518a77.409,77.409,0,0,0,6.6-19.037,109.074,109.074,0,0,0,2.2-22.525,92.569,92.569,0,0,0-1.738-18.311,70.9,70.9,0,0,0-5.205-15.976,63.44,63.44,0,0,0-8.669-13.66,68.793,68.793,0,0,0-12.144-11.363,91.212,91.212,0,0,0-19.462-10.474,173.975,173.975,0,0,0-26.285-8.014l-41.14-9.386c-13.793-3.183-25.277-6.142-34.132-8.8-8.878-2.66-15.377-5.092-19.317-7.229l0,0a38.74,38.74,0,0,1-7.966-5.792,31.946,31.946,0,0,1-5.706-7.279,33.453,33.453,0,0,1-3.422-8.743A43.625,43.625,0,0,1,66.8-217.281a45.15,45.15,0,0,1,3.888-18.577,52,52,0,0,1,11.643-16.133,42.088,42.088,0,0,1,9.032-6.544,58.134,58.134,0,0,1,11.495-4.659,88.041,88.041,0,0,1,13.947-2.787,136.064,136.064,0,0,1,16.4-.927,133.7,133.7,0,0,1,20.259,1.441,87.514,87.514,0,0,1,17.111,4.332A61.662,61.662,0,0,1,184.53-253.9a51.4,51.4,0,0,1,10.777,10.147,54.945,54.945,0,0,1,8.167,15.471,101.144,101.144,0,0,1,4.661,20.486h36.4a121.3,121.3,0,0,0-2.006-22.2,86.017,86.017,0,0,0-6.012-19.352,69.933,69.933,0,0,0-10.007-16.018A70.249,70.249,0,0,0,212.5-278.08a117.307,117.307,0,0,0-16.921-9.7,124.5,124.5,0,0,0-18.654-6.93,142.217,142.217,0,0,0-20.392-4.16,171.831,171.831,0,0,0-22.134-1.387,167.762,167.762,0,0,0-23.57,1.58,122.393,122.393,0,0,0-20.71,4.736,95.231,95.231,0,0,0-17.855,7.884,82.989,82.989,0,0,0-15.012,11.03,87.73,87.73,0,0,0-11.9,13.49,80.22,80.22,0,0,0-8.5,15.245,84.444,84.444,0,0,0-5.1,17.012,100.989,100.989,0,0,0-1.7,18.792,80.089,80.089,0,0,0,1.736,17.031,61.362,61.362,0,0,0,5.2,14.746,56.416,56.416,0,0,0,8.66,12.483A64.226,64.226,0,0,0,57.79-155.99c5.332,3.489,12.653,6.881,21.759,10.081a303.771,303.771,0,0,0,33.2,9.22l39.742,8.987a236.556,236.556,0,0,1,28.12,8.056,96.077,96.077,0,0,1,19.574,9.388l.006,0a31.735,31.735,0,0,1,6.658,6.049A33.193,33.193,0,0,1,211.6-96.41a42.873,42.873,0,0,1,2.842,9.51,62.811,62.811,0,0,1,.944,11.211,47.753,47.753,0,0,1-2.247,14.909,39.613,39.613,0,0,1-6.75,12.464,47.144,47.144,0,0,1-11.227,9.967,73,73,0,0,1-15.66,7.467,112.418,112.418,0,0,1-19.459,4.815,138.968,138.968,0,0,1-21.446,1.6,137.554,137.554,0,0,1-23.163-1.83,89.928,89.928,0,0,1-19.417-5.5,65.341,65.341,0,0,1-15.659-9.182A58.572,58.572,0,0,1,68.485-53.84a65.363,65.363,0,0,1-8.2-18.065,101.9,101.9,0,0,1-3.636-22.256ZM392.912,8.289a113.907,113.907,0,0,1-21.024-1.875A90.949,90.949,0,0,1,353.124.785,82.585,82.585,0,0,1,336.635-8.6a87.541,87.541,0,0,1-14.2-13.137,96.13,96.13,0,0,1-11.418-16.292,105.873,105.873,0,0,1-8.152-18.855A129.43,129.43,0,0,1,297.98-78.3a169.385,169.385,0,0,1-1.628-23.955,184.392,184.392,0,0,1,1.715-25.657,140.488,140.488,0,0,1,5.149-22.923,114.227,114.227,0,0,1,8.588-20.184,102.811,102.811,0,0,1,12.029-17.434A93.309,93.309,0,0,1,338.766-202.5a86.582,86.582,0,0,1,17.3-10.044,93.952,93.952,0,0,1,19.651-6.024,116.567,116.567,0,0,1,21.987-2.006,112.646,112.646,0,0,1,19.96,1.73,97.35,97.35,0,0,1,18.368,5.194,94.022,94.022,0,0,1,16.765,8.658,102.24,102.24,0,0,1,15.152,12.117,82.847,82.847,0,0,1,12.57,15.5,93.688,93.688,0,0,1,8.973,18.748,121.112,121.112,0,0,1,5.377,21.984,168.925,168.925,0,0,1,1.79,25.213,188.755,188.755,0,0,1-1.577,24.8,150.584,150.584,0,0,1-4.734,22.567,127.257,127.257,0,0,1-7.895,20.325A116.74,116.74,0,0,1,471.4-25.663,79.132,79.132,0,0,1,456.99-10.8,80.407,80.407,0,0,1,439.092-.19a98.936,98.936,0,0,1-21.365,6.361A138.189,138.189,0,0,1,392.912,8.289ZM397.7-219.577a115.568,115.568,0,0,0-21.8,1.988,92.943,92.943,0,0,0-19.442,5.959,85.568,85.568,0,0,0-17.1,9.927,92.309,92.309,0,0,0-14.773,13.9,101.814,101.814,0,0,0-11.911,17.265,113.239,113.239,0,0,0-8.512,20.007,139.481,139.481,0,0,0-5.111,22.76,183.369,183.369,0,0,0-1.705,25.518,168.408,168.408,0,0,0,1.617,23.813A128.446,128.446,0,0,0,303.819-57.2a104.879,104.879,0,0,0,8.074,18.677,95.132,95.132,0,0,0,11.3,16.123A86.548,86.548,0,0,0,337.227-9.409,81.585,81.585,0,0,0,353.516-.135a89.946,89.946,0,0,0,18.557,5.567,112.9,112.9,0,0,0,20.839,1.857,137.189,137.189,0,0,0,24.636-2.1,97.934,97.934,0,0,0,21.148-6.3,79.4,79.4,0,0,0,17.675-10.481A78.125,78.125,0,0,0,470.6-26.261a115.734,115.734,0,0,0,10.961-17.921,126.243,126.243,0,0,0,7.832-20.165,149.569,149.569,0,0,0,4.7-22.417,187.735,187.735,0,0,0,1.568-24.673,167.92,167.92,0,0,0-1.779-25.063,120.085,120.085,0,0,0-5.332-21.8,92.685,92.685,0,0,0-8.876-18.548,81.842,81.842,0,0,0-12.418-15.309,101.243,101.243,0,0,0-15-12,93.014,93.014,0,0,0-16.586-8.566,96.351,96.351,0,0,0-18.179-5.141A111.65,111.65,0,0,0,397.7-219.577ZM737.083.5H700.136V-214.386h35.15v35.049a55.175,55.175,0,0,1,6.346-9.869,134.387,134.387,0,0,1,13.38-14.359,58.05,58.05,0,0,1,17.778-11.707,53.25,53.25,0,0,1,20.31-3.907c.685,0,1.81.066,3.437.2,1.593.133,4.351.4,8.2.8l.448.046v39l-.592-.111a53.478,53.478,0,0,0-5.836-.792c-1.776-.132-3.746-.2-5.854-.2a71.294,71.294,0,0,0-12.7,1.084,53.741,53.741,0,0,0-11.117,3.246,45.824,45.824,0,0,0-9.544,5.4,46.243,46.243,0,0,0-7.989,7.563A62.221,62.221,0,0,0,740.7-144.293a62.261,62.261,0,0,0-3.615,21.273Zm-35.947-1h34.947V-123.02a63.259,63.259,0,0,1,3.674-21.614,63.214,63.214,0,0,1,11.02-18.947,47.241,47.241,0,0,1,8.162-7.727,46.82,46.82,0,0,1,9.753-5.52,54.735,54.735,0,0,1,11.325-3.307,72.291,72.291,0,0,1,12.883-1.1c2.133,0,4.128.068,5.928.2a53.113,53.113,0,0,1,5.354.7V-217.23c-3.606-.372-6.205-.625-7.729-.752-1.577-.131-2.705-.2-3.354-.2a52.255,52.255,0,0,0-19.931,3.832,57.056,57.056,0,0,0-17.47,11.509,133.414,133.414,0,0,0-13.28,14.249,48.486,48.486,0,0,0-7.167,11.83l-.966-.181v-36.446h-33.15ZM588.613.5H551.666V-214.386h35.15v35.049a55.178,55.178,0,0,1,6.346-9.869,134.408,134.408,0,0,1,13.381-14.359,58.051,58.051,0,0,1,17.778-11.707,53.25,53.25,0,0,1,20.31-3.907c.685,0,1.809.066,3.437.2,1.593.133,4.351.4,8.2.8l.448.046v39l-.592-.111a53.468,53.468,0,0,0-5.836-.792c-1.776-.132-3.746-.2-5.854-.2a71.293,71.293,0,0,0-12.7,1.084,53.74,53.74,0,0,0-11.117,3.246,45.822,45.822,0,0,0-9.544,5.4,46.247,46.247,0,0,0-7.989,7.563,62.219,62.219,0,0,0-10.848,18.647,62.261,62.261,0,0,0-3.615,21.273Zm-35.947-1h34.947V-123.02a63.259,63.259,0,0,1,3.674-21.614,63.213,63.213,0,0,1,11.02-18.947,47.239,47.239,0,0,1,8.162-7.727,46.822,46.822,0,0,1,9.753-5.52,54.737,54.737,0,0,1,11.325-3.307,72.291,72.291,0,0,1,12.883-1.1c2.133,0,4.128.068,5.928.2a53.122,53.122,0,0,1,5.354.7V-217.23c-3.607-.372-6.206-.625-7.729-.752-1.577-.131-2.705-.2-3.354-.2a52.256,52.256,0,0,0-19.931,3.832,57.054,57.054,0,0,0-17.47,11.509,133.405,133.405,0,0,0-13.28,14.249,48.49,48.49,0,0,0-7.167,11.83l-.966-.181v-36.446h-33.15ZM396.307-22.666A77.454,77.454,0,0,1,381.03-24.1a56.021,56.021,0,0,1-13.1-4.308,47.5,47.5,0,0,1-10.9-7.19,50.049,50.049,0,0,1-8.674-10.061,82.444,82.444,0,0,1-6.593-12.169,92.609,92.609,0,0,1-4.706-13.591,123.935,123.935,0,0,1-3.761-31.431,138.513,138.513,0,0,1,3.759-33.072,108,108,0,0,1,4.7-14.6,97.813,97.813,0,0,1,6.587-13.3,53.652,53.652,0,0,1,8.694-11.112,47.463,47.463,0,0,1,10.975-7.947,53.107,53.107,0,0,1,13.23-4.764,71.9,71.9,0,0,1,15.46-1.585,76.453,76.453,0,0,1,17.314,1.86,55.064,55.064,0,0,1,14.586,5.593,49.34,49.34,0,0,1,11.828,9.331,57.759,57.759,0,0,1,9.041,13.044,82.985,82.985,0,0,1,7.235,21.7,142.358,142.358,0,0,1,2.406,27.257A147.682,147.682,0,0,1,455.783-78.7a127.523,127.523,0,0,1-10,28.7,49.473,49.473,0,0,1-8.127,11.959,44.054,44.054,0,0,1-10.977,8.553,52.156,52.156,0,0,1-13.793,5.124A76.043,76.043,0,0,1,396.307-22.666Zm.4-165.557a70.9,70.9,0,0,0-15.245,1.561,52.107,52.107,0,0,0-12.981,4.673,46.464,46.464,0,0,0-10.743,7.78,52.652,52.652,0,0,0-8.531,10.906,96.808,96.808,0,0,0-6.519,13.162,107.01,107.01,0,0,0-4.659,14.461,137.512,137.512,0,0,0-3.73,32.832,122.939,122.939,0,0,0,3.728,31.177,91.615,91.615,0,0,0,4.655,13.444,81.453,81.453,0,0,0,6.513,12.021,49.048,49.048,0,0,0,8.5,9.86,46.494,46.494,0,0,0,10.67,7.039,55.026,55.026,0,0,0,12.864,4.23,76.453,76.453,0,0,0,15.079,1.413,75.047,75.047,0,0,0,16.36-1.679A51.158,51.158,0,0,0,426.2-30.369a43.056,43.056,0,0,0,10.729-8.359,48.476,48.476,0,0,0,7.961-11.718,126.519,126.519,0,0,0,9.921-28.471,146.684,146.684,0,0,0,3.308-31.521,141.353,141.353,0,0,0-2.387-27.064,81.986,81.986,0,0,0-7.144-21.437,56.761,56.761,0,0,0-8.882-12.818,48.345,48.345,0,0,0-11.588-9.142,54.062,54.062,0,0,0-14.322-5.49A75.454,75.454,0,0,0,396.706-188.223Z" transform="translate(542.5 3336.5)" fill="#fff" opacity="0.07"/>
    <text id="_404_Not_Found." data-name="404 Not Found." transform="translate(1648 3336)" fill="#fff" font-size="409" font-family="Helvetica" letter-spacing="0.03em" opacity="0.02"><tspan x="0" y="0">404 Not Found.</tspan></text>
  </g>
</svg>
