<svg xmlns="http://www.w3.org/2000/svg" width="2203.179" height="390.029" viewBox="0 0 2203.179 390.029">
  <path id="Case_Study_" data-name="Case Study " d="M154.773-301.858a180.668,180.668,0,0,1,26.372,1.84,133.57,133.57,0,0,1,23.266,5.526,106.218,106.218,0,0,1,20.153,9.218,95.2,95.2,0,0,1,17.027,12.912,131.26,131.26,0,0,1,13.72,15.236,108.317,108.317,0,0,1,10.295,16.252,97.452,97.452,0,0,1,6.863,17.264,97.611,97.611,0,0,1,3.425,18.267l.049.545H236.256l-.09-.387a90.67,90.67,0,0,0-9.805-25.273,75.4,75.4,0,0,0-7.334-10.428,74.072,74.072,0,0,0-8.957-8.964,60.055,60.055,0,0,0-10.738-7.191,71.635,71.635,0,0,0-12.724-5.144,93.885,93.885,0,0,0-14.719-3.091,129.239,129.239,0,0,0-16.716-1.032,107.945,107.945,0,0,0-20.531,1.894,88.707,88.707,0,0,0-18.437,5.678,83.45,83.45,0,0,0-16.359,9.461,91.438,91.438,0,0,0-14.294,13.252,86.389,86.389,0,0,0-11.6,17.157,114.514,114.514,0,0,0-8.295,21.22,165.279,165.279,0,0,0-4.983,25.292,244.833,244.833,0,0,0-1.663,29.365,192.424,192.424,0,0,0,1.5,24.481,148.662,148.662,0,0,0,4.5,22.037,120.938,120.938,0,0,0,7.489,19.6A106.665,106.665,0,0,0,82.979-59.713,77.4,77.4,0,0,0,96.4-45.78a75.073,75.073,0,0,0,16.361,9.95,88.125,88.125,0,0,0,19.318,5.975,118.96,118.96,0,0,0,22.292,1.994,96.777,96.777,0,0,0,20.551-2.1,75.5,75.5,0,0,0,17.917-6.286,70.453,70.453,0,0,0,15.306-10.473,80.619,80.619,0,0,0,12.714-14.675,101,101,0,0,0,10.582-20.47,164.133,164.133,0,0,0,7.515-26.082l.083-.4h39.709l-.062.556a156.946,156.946,0,0,1-4.107,22.3,136.247,136.247,0,0,1-7.116,20.433A127.047,127.047,0,0,1,257.34-46.494a128.627,128.627,0,0,1-13.132,16.678,115.343,115.343,0,0,1-19.079,16.584A113.047,113.047,0,0,1,202.988-1.383,127.992,127.992,0,0,1,177.8,5.722,162.319,162.319,0,0,1,149.58,8.089a152.177,152.177,0,0,1-24.62-1.941A128.057,128.057,0,0,1,102.38.321,118.313,118.313,0,0,1,81.848-9.394a121.875,121.875,0,0,1-18.474-13.6A119.71,119.71,0,0,1,43.281-46.344,137.828,137.828,0,0,1,28.937-75.269a183.84,183.84,0,0,1-8.6-34.481,264.891,264.891,0,0,1-2.864-40.03,216.911,216.911,0,0,1,2.152-31.064A172.973,172.973,0,0,1,26.085-209a148.252,148.252,0,0,1,10.771-25.236,140.11,140.11,0,0,1,15.082-22.31,125.06,125.06,0,0,1,20.414-19.824,116.976,116.976,0,0,1,23.955-14.165,129.136,129.136,0,0,1,27.479-8.5A163.588,163.588,0,0,1,154.773-301.858ZM274.847-205.8a96.526,96.526,0,0,0-3.339-17.534,96.458,96.458,0,0,0-6.792-17.086,107.314,107.314,0,0,0-10.2-16.1A130.235,130.235,0,0,0,240.9-271.639a94.206,94.206,0,0,0-16.848-12.776,105.224,105.224,0,0,0-19.963-9.13A132.576,132.576,0,0,0,181-299.029a179.674,179.674,0,0,0-26.226-1.829,162.6,162.6,0,0,0-30.8,2.812,128.146,128.146,0,0,0-27.266,8.429,115.968,115.968,0,0,0-23.75,14.044,124.07,124.07,0,0,0-20.251,19.667,139.135,139.135,0,0,0-14.975,22.151,147.216,147.216,0,0,0-10.7,25.066A171.983,171.983,0,0,0,20.615-180.7a215.861,215.861,0,0,0-2.142,30.92A263.9,263.9,0,0,0,21.326-109.9a182.793,182.793,0,0,0,8.551,34.293A136.819,136.819,0,0,0,44.116-46.894,118.708,118.708,0,0,0,64.04-23.738,120.842,120.842,0,0,0,82.361-10.252,117.273,117.273,0,0,0,102.719-.62a127.068,127.068,0,0,0,22.4,5.781A151.189,151.189,0,0,0,149.58,7.089a161.3,161.3,0,0,0,28.047-2.351,127.009,127.009,0,0,0,24.989-7.049,112.048,112.048,0,0,0,21.945-11.743A114.366,114.366,0,0,0,243.475-30.5a127.629,127.629,0,0,0,13.031-16.549,126.045,126.045,0,0,0,10.045-18.412,135.217,135.217,0,0,0,7.063-20.283,155.606,155.606,0,0,0,4.017-21.6H239.856a164.6,164.6,0,0,1-7.48,25.843,101.993,101.993,0,0,1-10.688,20.671,81.6,81.6,0,0,1-12.872,14.855,71.439,71.439,0,0,1-15.524,10.621,76.488,76.488,0,0,1-18.155,6.37,97.774,97.774,0,0,1-20.764,2.121,119.952,119.952,0,0,1-22.48-2.012,89.109,89.109,0,0,1-19.538-6.044A76.073,76.073,0,0,1,95.777-45a78.4,78.4,0,0,1-13.6-14.113A107.649,107.649,0,0,1,71.6-76.437,121.877,121.877,0,0,1,64.05-96.2a149.692,149.692,0,0,1-4.528-22.186,193.441,193.441,0,0,1-1.508-24.609,245.83,245.83,0,0,1,1.67-29.486A166.283,166.283,0,0,1,64.7-197.922a115.529,115.529,0,0,1,8.369-21.405A87.381,87.381,0,0,1,84.8-236.683a92.437,92.437,0,0,1,14.451-13.4,84.459,84.459,0,0,1,16.555-9.574,89.7,89.7,0,0,1,18.646-5.743,108.969,108.969,0,0,1,20.721-1.913,130.206,130.206,0,0,1,16.847,1.04,94.9,94.9,0,0,1,14.875,3.125,72.678,72.678,0,0,1,12.9,5.216,61.054,61.054,0,0,1,10.917,7.312,75.043,75.043,0,0,1,9.079,9.085,76.378,76.378,0,0,1,7.432,10.566,91.454,91.454,0,0,1,9.825,25.165Zm989.339-95.46a172.844,172.844,0,0,1,22.263,1.4,143.231,143.231,0,0,1,20.536,4.19,125.506,125.506,0,0,1,18.8,6.987,118.308,118.308,0,0,1,17.066,9.783,71.254,71.254,0,0,1,14.21,12.891,70.936,70.936,0,0,1,10.151,16.247,87.014,87.014,0,0,1,6.083,19.578,122.745,122.745,0,0,1,2.025,22.891v.5h-38.286l-.056-.437a100.726,100.726,0,0,0-4.669-20.716,53.953,53.953,0,0,0-8.011-15.187,50.393,50.393,0,0,0-10.564-9.946,60.662,60.662,0,0,0-13.729-7.117,86.51,86.51,0,0,0-16.914-4.281,132.7,132.7,0,0,0-20.107-1.429c-11.614,0-21.729,1.236-30.065,3.674a57.153,57.153,0,0,0-11.3,4.577,41.089,41.089,0,0,0-8.818,6.387,51,51,0,0,0-11.423,15.82,44.155,44.155,0,0,0-3.8,18.169,42.627,42.627,0,0,0,1.109,9.943,32.452,32.452,0,0,0,3.319,8.482,30.951,30.951,0,0,0,5.527,7.051,37.748,37.748,0,0,0,7.756,5.639h0c3.879,2.1,10.314,4.509,19.127,7.15,8.835,2.647,20.3,5.6,34.069,8.779l41.138,9.386a174.946,174.946,0,0,1,26.438,8.062,92.2,92.2,0,0,1,19.678,10.594,69.784,69.784,0,0,1,12.322,11.53,64.432,64.432,0,0,1,8.806,13.875,71.912,71.912,0,0,1,5.28,16.2,93.581,93.581,0,0,1,1.757,18.51,110.082,110.082,0,0,1-2.226,22.733,78.424,78.424,0,0,1-6.69,19.282,66.79,66.79,0,0,1-11.161,15.808,72.449,72.449,0,0,1-15.616,12.3,143.426,143.426,0,0,1-18.506,9.206,150.44,150.44,0,0,1-19.944,6.575,166.919,166.919,0,0,1-21.377,3.944,193.874,193.874,0,0,1-22.807,1.314,183.881,183.881,0,0,1-25.946-1.753,136.963,136.963,0,0,1-22.988-5.262A109.038,109.038,0,0,1,1196.625-6.7,96.89,96.89,0,0,1,1179.574-19,90.768,90.768,0,0,1,1166-34.2a87.455,87.455,0,0,1-9.616-17.688,98.4,98.4,0,0,1-5.646-20.161,125.274,125.274,0,0,1-1.68-22.62l.006-.494h38.312l.026.472a101.384,101.384,0,0,0,3.625,22.505A64.361,64.361,0,0,0,1199.1-54.4a57.556,57.556,0,0,0,11.667,12.643,64.34,64.34,0,0,0,15.42,9.041,88.953,88.953,0,0,0,19.2,5.436,136.562,136.562,0,0,0,22.994,1.815,137.964,137.964,0,0,0,21.291-1.592,111.414,111.414,0,0,0,19.285-4.771,72.01,72.01,0,0,0,15.444-7.361,46.152,46.152,0,0,0,10.99-9.754,38.619,38.619,0,0,0,6.581-12.15,46.765,46.765,0,0,0,2.2-14.6c0-7.881-1.245-14.717-3.7-20.319a32.2,32.2,0,0,0-4.609-7.559,30.739,30.739,0,0,0-6.442-5.854h0a95.089,95.089,0,0,0-19.368-9.284,235.572,235.572,0,0,0-28-8.02l-39.74-8.987A304.735,304.735,0,0,1,1209-144.965c-9.182-3.227-16.575-6.655-21.976-10.189a65.235,65.235,0,0,1-12.327-10.4,57.418,57.418,0,0,1-8.814-12.7,62.365,62.365,0,0,1-5.285-14.986,81.093,81.093,0,0,1-1.759-17.244,101.981,101.981,0,0,1,1.719-18.978,85.436,85.436,0,0,1,5.16-17.213,81.224,81.224,0,0,1,8.6-15.435,88.738,88.738,0,0,1,12.037-13.645,84,84,0,0,1,15.193-11.163,96.23,96.23,0,0,1,18.043-7.967,123.367,123.367,0,0,1,20.879-4.775A168.75,168.75,0,0,1,1264.185-301.259ZM1374.322-207.8a121.294,121.294,0,0,0-2.006-22.2,86.022,86.022,0,0,0-6.012-19.353,69.939,69.939,0,0,0-10.007-16.018,70.252,70.252,0,0,0-14.011-12.709,117.317,117.317,0,0,0-16.921-9.7,124.5,124.5,0,0,0-18.654-6.931,142.215,142.215,0,0,0-20.392-4.16,171.842,171.842,0,0,0-22.134-1.388,167.743,167.743,0,0,0-23.57,1.58,122.356,122.356,0,0,0-20.71,4.736,95.218,95.218,0,0,0-17.855,7.884,82.973,82.973,0,0,0-15.012,11.029,87.732,87.732,0,0,0-11.9,13.49,80.216,80.216,0,0,0-8.5,15.245,84.445,84.445,0,0,0-5.1,17.011,101.015,101.015,0,0,0-1.7,18.791,80.1,80.1,0,0,0,1.736,17.031,61.359,61.359,0,0,0,5.2,14.746,56.421,56.421,0,0,0,8.661,12.483,64.238,64.238,0,0,0,12.138,10.242c5.332,3.489,12.653,6.881,21.759,10.081a303.811,303.811,0,0,0,33.2,9.22l39.742,8.987a236.588,236.588,0,0,1,28.12,8.056,96.067,96.067,0,0,1,19.574,9.388l.006,0a31.726,31.726,0,0,1,6.657,6.049,33.187,33.187,0,0,1,4.753,7.793,42.879,42.879,0,0,1,2.843,9.51,62.813,62.813,0,0,1,.944,11.211,47.752,47.752,0,0,1-2.247,14.909,39.611,39.611,0,0,1-6.75,12.464,47.133,47.133,0,0,1-11.227,9.967,73,73,0,0,1-15.659,7.467,112.424,112.424,0,0,1-19.459,4.815,138.964,138.964,0,0,1-21.446,1.6,137.574,137.574,0,0,1-23.163-1.829,89.941,89.941,0,0,1-19.418-5.5,65.345,65.345,0,0,1-15.659-9.182,58.563,58.563,0,0,1-11.872-12.866,65.365,65.365,0,0,1-8.2-18.065,101.89,101.89,0,0,1-3.636-22.256h-36.379a123.91,123.91,0,0,0,1.671,21.945,97.4,97.4,0,0,0,5.588,19.956,86.454,86.454,0,0,0,9.506,17.485,89.75,89.75,0,0,0,13.431,15.031,95.894,95.894,0,0,0,16.876,12.17,108.064,108.064,0,0,0,19.841,8.7,136,136,0,0,0,22.82,5.223,182.871,182.871,0,0,0,25.8,1.742,192.882,192.882,0,0,0,22.689-1.307,165.967,165.967,0,0,0,21.248-3.92,149.414,149.414,0,0,0,19.811-6.531,142.474,142.474,0,0,0,18.377-9.142,71.461,71.461,0,0,0,15.4-12.134A65.787,65.787,0,0,0,1374.1-40.517a77.405,77.405,0,0,0,6.6-19.037,109.064,109.064,0,0,0,2.2-22.526,92.551,92.551,0,0,0-1.738-18.311,70.894,70.894,0,0,0-5.2-15.976,63.437,63.437,0,0,0-8.669-13.66,68.794,68.794,0,0,0-12.144-11.363,91.2,91.2,0,0,0-19.462-10.474,174.025,174.025,0,0,0-26.285-8.014l-41.14-9.386c-13.793-3.183-25.277-6.142-34.132-8.8-8.878-2.66-15.377-5.092-19.317-7.229l0,0a38.725,38.725,0,0,1-7.966-5.792,31.959,31.959,0,0,1-5.706-7.278,33.469,33.469,0,0,1-3.422-8.743,43.623,43.623,0,0,1-1.137-10.177,45.148,45.148,0,0,1,3.888-18.577,52,52,0,0,1,11.643-16.133,42.085,42.085,0,0,1,9.031-6.544,58.137,58.137,0,0,1,11.495-4.659,88.074,88.074,0,0,1,13.947-2.788,136.091,136.091,0,0,1,16.4-.927,133.73,133.73,0,0,1,20.259,1.441,87.529,87.529,0,0,1,17.11,4.332,61.671,61.671,0,0,1,13.955,7.236,51.4,51.4,0,0,1,10.777,10.147,54.954,54.954,0,0,1,8.168,15.471,101.171,101.171,0,0,1,4.661,20.486Zm571.826-87.072H1981.7V.5h-33.352V-28.064a91.278,91.278,0,0,1-12.884,15.693A68.385,68.385,0,0,1,1919.317-.753a78.071,78.071,0,0,1-18.542,6.633,96.728,96.728,0,0,1-21.028,2.209A79.22,79.22,0,0,1,1862.362,6.2,74.7,74.7,0,0,1,1846.177.525a82.2,82.2,0,0,1-14.97-9.45,102.892,102.892,0,0,1-13.747-13.214,97.627,97.627,0,0,1-11.5-16.354,106.106,106.106,0,0,1-8.214-18.842,128.147,128.147,0,0,1-4.925-21.321,166.1,166.1,0,0,1-1.64-23.793,167.807,167.807,0,0,1,1.5-22.653,143.815,143.815,0,0,1,4.49-21.1,131.266,131.266,0,0,1,7.486-19.54,129.081,129.081,0,0,1,10.482-17.975,85.167,85.167,0,0,1,13.291-15.072,74.1,74.1,0,0,1,15.878-10.776,78.344,78.344,0,0,1,18.447-6.463,98.723,98.723,0,0,1,20.995-2.152,93.055,93.055,0,0,1,22.689,2.611,65.209,65.209,0,0,1,18.716,7.85,64.9,64.9,0,0,1,10.316,8.3,140.715,140.715,0,0,1,10.686,11.692Zm34.549,1h-33.549v108.949l-.888-1.092c-8.049-9.9-15.331-16.914-21.645-20.861a64.215,64.215,0,0,0-18.43-7.728,92.052,92.052,0,0,0-22.444-2.581,97.724,97.724,0,0,0-20.781,2.129,77.346,77.346,0,0,0-18.212,6.38,73.1,73.1,0,0,0-15.663,10.631,84.163,84.163,0,0,0-13.133,14.9,128.054,128.054,0,0,0-10.4,17.835,130.248,130.248,0,0,0-7.429,19.391,142.88,142.88,0,0,0-4.459,20.952,166.817,166.817,0,0,0-1.487,22.518,165.049,165.049,0,0,0,1.63,23.649,127.12,127.12,0,0,0,4.886,21.154,105.118,105.118,0,0,0,8.137,18.665A96.619,96.619,0,0,0,1818.215-22.8,101.869,101.869,0,0,0,1831.827-9.71a81.224,81.224,0,0,0,14.787,9.335,73.7,73.7,0,0,0,15.968,5.6,78.213,78.213,0,0,0,17.165,1.866,95.738,95.738,0,0,0,20.81-2.185,77.082,77.082,0,0,0,18.3-6.548,67.4,67.4,0,0,0,15.908-11.449,91.528,91.528,0,0,0,13.654-16.933l.922-1.449V-.5H1980.7ZM1447.9-274.1h37.347v59.712h34.15v30.357h-34.15v139.1a20.151,20.151,0,0,0,1.843,9.11,12.024,12.024,0,0,0,5.469,5.421l.008,0c2.711,1.42,7.336,2.14,13.747,2.14,1.723,0,3.6-.033,5.575-.1s4.319-.233,6.957-.5l.55-.055V.376l-.361.1a81.153,81.153,0,0,1-12.961,2.612,123.54,123.54,0,0,1-14.538.8c-8.409,0-15.573-1.094-21.3-3.252a31.452,31.452,0,0,1-7.648-4.092A24.9,24.9,0,0,1,1456.98-9.2a47.592,47.592,0,0,1-6.813-14.96,72.689,72.689,0,0,1-2.264-18.777V-184.029h-28.958v-30.357H1447.9Zm36.347,1H1448.9v59.712h-28.958v28.357H1448.9V-42.937a71.7,71.7,0,0,0,2.229,18.518A46.609,46.609,0,0,0,1457.8-9.772a23.907,23.907,0,0,0,5.392,5.52A30.464,30.464,0,0,0,1470.6-.293c5.609,2.115,12.655,3.188,20.942,3.188a122.556,122.556,0,0,0,14.42-.8A80.3,80.3,0,0,0,1518.4-.377v-27.43c-2.436.235-4.612.386-6.473.448-1.988.066-3.875.1-5.609.1a55.7,55.7,0,0,1-8.465-.555,18.931,18.931,0,0,1-5.746-1.7h0a13.006,13.006,0,0,1-5.906-5.859,21.126,21.126,0,0,1-1.951-9.562v-140.1h34.15v-28.357h-34.15ZM647.227-219.978A135.062,135.062,0,0,1,669.79-218.2,92.236,92.236,0,0,1,689-212.852a69.9,69.9,0,0,1,15.853,8.926,63.87,63.87,0,0,1,12.467,12.5,67.582,67.582,0,0,1,10.01,18.815,59.9,59.9,0,0,1,3.071,20.239l-.009.49h-34.9l-.038-.459a41.083,41.083,0,0,0-2.614-11.493,42.806,42.806,0,0,0-5.862-10.4,32.508,32.508,0,0,0-7.206-6.1,43.456,43.456,0,0,0-9.489-4.379c-7.072-2.336-15.771-3.52-25.855-3.52a73.416,73.416,0,0,0-17.776,1.932,36.126,36.126,0,0,0-12.78,5.758,25.6,25.6,0,0,0-7.716,8.863,24.648,24.648,0,0,0-2.567,11.306,23.117,23.117,0,0,0,3.37,12.319,29.92,29.92,0,0,0,10.169,9.621l.005,0c5.255,3.284,13.134,6.22,23.419,8.725L664.32-123.9c12.869,3.118,23.77,6.23,32.4,9.25,8.653,3.029,15.276,6.054,19.683,8.993a46.526,46.526,0,0,1,9.271,7.96,43.632,43.632,0,0,1,6.629,9.962A50.809,50.809,0,0,1,736.274-75.8a69.583,69.583,0,0,1,1.321,13.893,69.782,69.782,0,0,1-1.365,13.892,63.841,63.841,0,0,1-4.095,12.92,66.653,66.653,0,0,1-6.823,11.935,78.619,78.619,0,0,1-9.54,10.941,62.678,62.678,0,0,1-12.349,9.16,77.969,77.969,0,0,1-15.182,6.533,108.242,108.242,0,0,1-18,3.913,157.441,157.441,0,0,1-20.818,1.3,169.728,169.728,0,0,1-22.189-1.359,108.5,108.5,0,0,1-18.728-4.082,71.8,71.8,0,0,1-15.265-6.82,53.633,53.633,0,0,1-11.786-9.569,80.893,80.893,0,0,1-8.835-11.549,78.545,78.545,0,0,1-6.513-12.844,84.279,84.279,0,0,1-4.188-14.132,98.586,98.586,0,0,1-1.863-15.412l-.023-.522H595.56l.041.456a71.765,71.765,0,0,0,3.023,15.766,38.21,38.21,0,0,0,5.862,11.533,37.042,37.042,0,0,0,7.929,7.5,45.564,45.564,0,0,0,10.42,5.37,66.425,66.425,0,0,0,12.933,3.232,103.467,103.467,0,0,0,15.452,1.08,77.905,77.905,0,0,0,18.652-2.157,63.211,63.211,0,0,0,16.248-6.464,32.621,32.621,0,0,0,6.54-4.861,26.709,26.709,0,0,0,4.656-6.009,27.741,27.741,0,0,0,2.795-7.179,35.974,35.974,0,0,0,.935-8.377A23.328,23.328,0,0,0,698.069-69.6a24.46,24.46,0,0,0-8.953-8.655c-5.13-2.893-15.434-6.3-30.628-10.134L629.93-95.574a217.372,217.372,0,0,1-23.819-7.206,88.677,88.677,0,0,1-16.671-8.036h0a58.519,58.519,0,0,1-10.218-8.055,45.561,45.561,0,0,1-7.319-9.491,43.032,43.032,0,0,1-4.395-10.911,50.4,50.4,0,0,1-1.463-12.3,74.75,74.75,0,0,1,1.376-14.551,62.1,62.1,0,0,1,4.134-13.112,59.316,59.316,0,0,1,6.892-11.656,65.972,65.972,0,0,1,9.64-10.188,70.439,70.439,0,0,1,11.961-8.272,78.262,78.262,0,0,1,13.85-5.9,96.2,96.2,0,0,1,15.728-3.538A126.266,126.266,0,0,1,647.227-219.978Zm82.186,67.1a58.859,58.859,0,0,0-3.027-19.412,66.584,66.584,0,0,0-9.863-18.533,62.868,62.868,0,0,0-12.27-12.307,68.889,68.889,0,0,0-15.626-8.8,91.221,91.221,0,0,0-19.005-5.288,134.06,134.06,0,0,0-22.4-1.765,125.285,125.285,0,0,0-17.461,1.168,95.216,95.216,0,0,0-15.564,3.5,77.253,77.253,0,0,0-13.672,5.828,69.46,69.46,0,0,0-11.791,8.154,64.986,64.986,0,0,0-9.494,10.033,58.321,58.321,0,0,0-6.776,11.459,61.092,61.092,0,0,0-4.067,12.9,73.753,73.753,0,0,0-1.357,14.356,49.393,49.393,0,0,0,1.433,12.06,42.022,42.022,0,0,0,4.292,10.658,44.556,44.556,0,0,0,7.159,9.282,57.515,57.515,0,0,0,10.048,7.919l.005,0a87.7,87.7,0,0,0,16.48,7.94,216.251,216.251,0,0,0,23.71,7.172l28.559,7.19c7.632,1.925,14.094,3.759,19.207,5.453A69.754,69.754,0,0,1,689.61-79.12l.009.005a25.45,25.45,0,0,1,9.315,9.016,24.313,24.313,0,0,1,3.113,12.384,32.226,32.226,0,0,1-3.859,16.048,30.118,30.118,0,0,1-11.57,11.247,64.207,64.207,0,0,1-16.5,6.567,78.9,78.9,0,0,1-18.892,2.186,104.477,104.477,0,0,1-15.6-1.092,67.41,67.41,0,0,1-13.129-3.283,46.565,46.565,0,0,1-10.649-5.489,38.042,38.042,0,0,1-8.145-7.7,39.2,39.2,0,0,1-6.023-11.836A72.177,72.177,0,0,1,594.646-66.6H561.077a97.3,97.3,0,0,0,1.82,14.734A83.284,83.284,0,0,0,567.035-37.9a77.574,77.574,0,0,0,6.43,12.681,79.862,79.862,0,0,0,8.726,11.405,52.633,52.633,0,0,0,11.567,9.39,70.81,70.81,0,0,0,15.053,6.723,107.5,107.5,0,0,0,18.555,4.043,168.683,168.683,0,0,0,22.058,1.35,156.424,156.424,0,0,0,20.684-1.294,107.212,107.212,0,0,0,17.834-3.876,77,77,0,0,0,14.987-6.448,61.665,61.665,0,0,0,12.152-9.013,77.609,77.609,0,0,0,9.419-10.8A65.657,65.657,0,0,0,731.22-35.5a62.853,62.853,0,0,0,4.031-12.717,68.806,68.806,0,0,0,1.344-13.692,68.571,68.571,0,0,0-1.3-13.692A49.786,49.786,0,0,0,731.4-87.3a42.63,42.63,0,0,0-6.477-9.734,45.534,45.534,0,0,0-9.075-7.79c-4.341-2.894-10.888-5.882-19.462-8.883-8.6-3.009-19.468-6.112-32.305-9.222l-23.766-5.792c-10.385-2.53-18.361-5.506-23.707-8.846h0a30.906,30.906,0,0,1-10.5-9.951,24.1,24.1,0,0,1-3.519-12.844,25.637,25.637,0,0,1,2.676-11.76,26.591,26.591,0,0,1,8.011-9.211,37.1,37.1,0,0,1,13.132-5.925,74.4,74.4,0,0,1,18.021-1.963c10.191,0,19,1.2,26.169,3.57a44.461,44.461,0,0,1,9.707,4.482,33.5,33.5,0,0,1,7.438,6.3l.021.026a43.8,43.8,0,0,1,6.009,10.656,42.015,42.015,0,0,1,2.638,11.314Zm-311.538-66.7a151.245,151.245,0,0,1,34.314,3.608,103.081,103.081,0,0,1,14.512,4.516,84.492,84.492,0,0,1,12.745,6.329,51.62,51.62,0,0,1,10.324,8.27,45.322,45.322,0,0,1,7.383,10.3,49.871,49.871,0,0,1,4.426,12.306,66.275,66.275,0,0,1,1.472,14.287V-36.746a15.367,15.367,0,0,0,2.211,8.706c1.425,2.107,4.545,3.175,9.272,3.175,1.575,0,3.372-.1,5.342-.3s4.115-.5,6.354-.894l.587-.1V1.376l-.362.1A101.058,101.058,0,0,1,513.6,4.49a94.306,94.306,0,0,1-12.05.6,36.8,36.8,0,0,1-16.246-3.346A27.294,27.294,0,0,1,474.17-8.319a36.774,36.774,0,0,1-3.8-8.557,70.138,70.138,0,0,1-2.294-10.252,77.815,77.815,0,0,1-12.746,12.591A112.238,112.238,0,0,1,437.076-2.95,94.511,94.511,0,0,1,415.343,5.03,104.986,104.986,0,0,1,391.514,7.69a86.969,86.969,0,0,1-14.281-1.136A70.585,70.585,0,0,1,364.3,3.14a63.225,63.225,0,0,1-11.569-5.693,63.946,63.946,0,0,1-10.2-7.97,64.361,64.361,0,0,1-8.321-9.68,58.344,58.344,0,0,1-5.949-10.833A60.35,60.35,0,0,1,324.7-43.012a70.573,70.573,0,0,1-1.188-13.105,81.954,81.954,0,0,1,1.168-14.128,62.358,62.358,0,0,1,3.511-12.47,53.08,53.08,0,0,1,5.859-10.8,52.746,52.746,0,0,1,8.2-9.111,77.119,77.119,0,0,1,21.608-13.318,106.477,106.477,0,0,1,27.389-6.974l57.316-7.189a25.031,25.031,0,0,0,10.131-3.322,16.04,16.04,0,0,0,6.055-6.781l0-.008c1.555-3.11,2.344-7.671,2.344-13.556a35.315,35.315,0,0,0-3.219-15.632,25.523,25.523,0,0,0-4.009-5.919,27.3,27.3,0,0,0-5.62-4.688,49.246,49.246,0,0,0-15.742-6.15,100.3,100.3,0,0,0-21.435-2.06c-9.281,0-17.318,1.266-23.887,3.762a38.86,38.86,0,0,0-8.848,4.682,32.816,32.816,0,0,0-6.811,6.541,35.053,35.053,0,0,0-5.364,10.291,70.808,70.808,0,0,0-3.122,14.426l-.053.44H334.484l.013-.512a104.431,104.431,0,0,1,1.988-18.355,69.757,69.757,0,0,1,4.973-15.369,52.6,52.6,0,0,1,7.971-12.368,49.287,49.287,0,0,1,10.964-9.338,97.985,97.985,0,0,1,12.891-6.806,100.607,100.607,0,0,1,13.88-4.861A117.737,117.737,0,0,1,417.875-219.579ZM514.533-23.864a19.307,19.307,0,0,1-6.281-.877,7.392,7.392,0,0,1-3.819-2.738,16.332,16.332,0,0,1-2.383-9.267V-159.965a65.26,65.26,0,0,0-1.449-14.071,48.863,48.863,0,0,0-4.336-12.059,44.318,44.318,0,0,0-7.22-10.071,50.607,50.607,0,0,0-10.122-8.107,83.458,83.458,0,0,0-12.592-6.252A102.083,102.083,0,0,0,451.96-215a150.25,150.25,0,0,0-34.086-3.581,116.74,116.74,0,0,0-30.449,3.852,99.589,99.589,0,0,0-13.742,4.812,96.948,96.948,0,0,0-12.759,6.737,48.273,48.273,0,0,0-10.742,9.148,51.582,51.582,0,0,0-7.818,12.133,68.741,68.741,0,0,0-4.9,15.149,102.894,102.894,0,0,0-1.954,17.666H368.1a71.174,71.174,0,0,1,3.115-14.191,36.04,36.04,0,0,1,5.522-10.581,33.812,33.812,0,0,1,7.016-6.738,39.864,39.864,0,0,1,9.076-4.8,55.886,55.886,0,0,1,11.109-2.872,84.874,84.874,0,0,1,13.134-.955,101.3,101.3,0,0,1,21.651,2.084,50.235,50.235,0,0,1,16.061,6.282,27,27,0,0,1,9.992,11.011,36.3,36.3,0,0,1,3.321,16.072c0,6.042-.824,10.753-2.449,14h0a17.021,17.021,0,0,1-6.422,7.19,26.014,26.014,0,0,1-10.536,3.467l-57.318,7.19a105.471,105.471,0,0,0-27.131,6.906,76.119,76.119,0,0,0-21.329,13.144,51.764,51.764,0,0,0-8.048,8.938,52.1,52.1,0,0,0-5.749,10.6,61.353,61.353,0,0,0-3.454,12.269,80.955,80.955,0,0,0-1.153,13.955A69.567,69.567,0,0,0,325.683-43.2a59.328,59.328,0,0,0,3.509,11.777,57.357,57.357,0,0,0,5.847,10.648,63.382,63.382,0,0,0,8.192,9.529A62.954,62.954,0,0,0,353.267-3.4a62.244,62.244,0,0,0,11.385,5.6A69.6,69.6,0,0,0,377.4,5.567,85.971,85.971,0,0,0,391.514,6.69a103.975,103.975,0,0,0,23.6-2.633,93.487,93.487,0,0,0,21.5-7.9A111.212,111.212,0,0,0,454.71-15.32,76.006,76.006,0,0,0,468-28.662l.726-.95.166,1.184c1.183,8.411,3.241,15,6.119,19.575a27.569,27.569,0,0,0,4.742,5.662A25.847,25.847,0,0,0,485.745.849a35.821,35.821,0,0,0,15.807,3.244A93.435,93.435,0,0,0,513.467,3.5,98.126,98.126,0,0,0,525.816.621V-24.968c-2.051.35-4.013.619-5.841.8C517.972-23.966,516.141-23.864,514.533-23.864ZM879.574-219.179a95.885,95.885,0,0,1,22.535,2.685,103.3,103.3,0,0,1,21.824,8.052,94.366,94.366,0,0,1,18.922,12.323,73.422,73.422,0,0,1,13.824,15.508,88.739,88.739,0,0,1,9.037,17.621,106.289,106.289,0,0,1,5.417,20.31,139.263,139.263,0,0,1,2.4,19.227c.531,7.829.8,17.247.8,27.993v.5H817.582a116.064,116.064,0,0,0,4.307,28.691,80.489,80.489,0,0,0,4.652,12.175,67.869,67.869,0,0,0,6.306,10.563,45.007,45.007,0,0,0,8.086,8.512,44.95,44.95,0,0,0,10.036,6.079,54.764,54.764,0,0,0,12.01,3.654,76.3,76.3,0,0,0,14,1.221,73.878,73.878,0,0,0,13.277-1.152A58.84,58.84,0,0,0,902.1-28.671a53.009,53.009,0,0,0,10.424-5.749,55.453,55.453,0,0,0,9.017-8.053,61.979,61.979,0,0,0,8.12-11.537,64.037,64.037,0,0,0,5.35-13.227l.1-.364H971.4l-.066.559a58.775,58.775,0,0,1-3.046,12.564,96.767,96.767,0,0,1-6.3,13.877,110.533,110.533,0,0,1-8.4,13.216,80.97,80.97,0,0,1-9.367,10.572,80.587,80.587,0,0,1-18.433,13.46,91.445,91.445,0,0,1-22.339,8.234h0a124.251,124.251,0,0,1-29.47,3.208,100.2,100.2,0,0,1-19.306-1.826A88.533,88.533,0,0,1,836.889.784a88.992,88.992,0,0,1-16.255-9.132A101.671,101.671,0,0,1,805.92-21.123a90.3,90.3,0,0,1-12.212-16.072,100.161,100.161,0,0,1-8.719-18.986,125.259,125.259,0,0,1-5.226-21.887,168.756,168.756,0,0,1-1.741-24.781,167.024,167.024,0,0,1,1.753-24.626,131.945,131.945,0,0,1,5.262-22.214,112.544,112.544,0,0,1,8.776-19.8,106.715,106.715,0,0,1,12.29-17.369,97.615,97.615,0,0,1,15.13-14.139,88.326,88.326,0,0,1,17.3-10.1,92.945,92.945,0,0,1,19.451-6.062A112.149,112.149,0,0,1,879.574-219.179ZM973.335-95.96c-.017-21.178-1.087-36.831-3.184-46.525l0-.023a105.284,105.284,0,0,0-5.366-20.125,87.775,87.775,0,0,0-8.936-17.425,72.431,72.431,0,0,0-13.637-15.3,93.387,93.387,0,0,0-18.722-12.191,102.3,102.3,0,0,0-21.612-7.974,94.884,94.884,0,0,0-22.3-2.657,111.171,111.171,0,0,0-21.4,2,91.943,91.943,0,0,0-19.242,6,87.334,87.334,0,0,0-17.1,9.991A96.627,96.627,0,0,0,806.858-186.2a105.762,105.762,0,0,0-12.174,17.206,111.588,111.588,0,0,0-8.7,19.621,130.988,130.988,0,0,0-5.222,22.046,166.041,166.041,0,0,0-1.742,24.477,167.775,167.775,0,0,0,1.729,24.634A124.28,124.28,0,0,0,785.935-56.5a99.162,99.162,0,0,0,8.631,18.8,89.3,89.3,0,0,0,12.077,15.894,100.69,100.69,0,0,0,14.568,12.65A88.015,88.015,0,0,0,837.283-.135a87.528,87.528,0,0,0,17.586,5.417,99.2,99.2,0,0,0,19.113,1.807,123.251,123.251,0,0,0,29.238-3.181l.007,0a90.433,90.433,0,0,0,22.1-8.142,79.594,79.594,0,0,0,18.209-13.3l.007-.007a79.965,79.965,0,0,0,9.253-10.444,109.525,109.525,0,0,0,8.324-13.1,95.758,95.758,0,0,0,6.234-13.732,58.484,58.484,0,0,0,2.926-11.79h-34.4a64.958,64.958,0,0,1-5.33,13.069,63.012,63.012,0,0,1-8.254,11.726,56.462,56.462,0,0,1-9.183,8.2,54,54,0,0,1-10.621,5.858,59.864,59.864,0,0,1-12.046,3.512,74.885,74.885,0,0,1-13.458,1.169A77.278,77.278,0,0,1,862.793-24.3a55.751,55.751,0,0,1-12.229-3.722A45.958,45.958,0,0,1,840.3-34.241a46.011,46.011,0,0,1-8.266-8.7,68.836,68.836,0,0,1-6.4-10.719,81.46,81.46,0,0,1-4.71-12.327,117.543,117.543,0,0,1-4.364-29.458l-.016-.515Zm592.483-118.426h37.746V-71.895a78.228,78.228,0,0,0,1.289,14.783,45.836,45.836,0,0,0,3.851,11.754,33.828,33.828,0,0,0,5.743,8.266,30.947,30.947,0,0,0,7.776,5.9,37.842,37.842,0,0,0,9.843,3.547A56.425,56.425,0,0,0,1644-26.462a66.942,66.942,0,0,0,17.146-2.08,48.27,48.27,0,0,0,14.133-6.226,46.44,46.44,0,0,0,11.163-10.374,60.847,60.847,0,0,0,8.219-14.559,92.168,92.168,0,0,0,5.511-21.205,190.981,190.981,0,0,0,1.842-27.935V-214.386h36.947V.5h-34.957l.382-30.181A76.126,76.126,0,0,1,1697.458-20a71.041,71.041,0,0,1-9.6,9.4,73.8,73.8,0,0,1-10.906,7.388,72.922,72.922,0,0,1-12.015,5.279,79.3,79.3,0,0,1-13.114,3.166,93.467,93.467,0,0,1-14.206,1.054,109.149,109.149,0,0,1-21.142-1.919A71.459,71.459,0,0,1,1598.95-1.4a54.817,54.817,0,0,1-13.881-9.637,54.972,54.972,0,0,1-10.2-13.49,68.833,68.833,0,0,1-6.791-19.26,123.885,123.885,0,0,1-2.257-24.715Zm36.746,1h-35.746V-68.5a122.9,122.9,0,0,0,2.236,24.513A67.861,67.861,0,0,0,1575.743-25a53.984,53.984,0,0,0,10.018,13.248A53.826,53.826,0,0,0,1599.39-2.3a70.449,70.449,0,0,0,17.277,5.688,108.132,108.132,0,0,0,20.947,1.9,92.459,92.459,0,0,0,14.053-1.042,78.246,78.246,0,0,0,12.948-3.125,71.9,71.9,0,0,0,11.85-5.206,72.794,72.794,0,0,0,10.76-7.289,70.015,70.015,0,0,0,9.47-9.272,75.734,75.734,0,0,0,7.787-11.16l.958-1.67L1705.022-.5h32.944V-213.386h-34.947V-108.84a191.956,191.956,0,0,1-1.853,28.083,93.158,93.158,0,0,1-5.574,21.435,61.851,61.851,0,0,1-8.355,14.8,47.451,47.451,0,0,1-11.4,10.6,49.279,49.279,0,0,1-14.425,6.356,67.941,67.941,0,0,1-17.4,2.114,57.41,57.41,0,0,1-12.151-1.21,38.843,38.843,0,0,1-10.1-3.643,31.94,31.94,0,0,1-8.026-6.087,34.836,34.836,0,0,1-5.915-8.509,46.828,46.828,0,0,1-3.938-12.011,79.22,79.22,0,0,1-1.307-14.974Zm421.147-1h41.814l.113.344L2122.48-41.336l57.353-173.05h40.82l-.248.673c-5.041,13.663-16.4,45.241-33.749,93.857-12.984,36.566-24,66.806-32.755,89.877-10.339,27.174-19.279,49.355-26.571,65.928-7.3,16.6-13.165,28.048-17.424,34.039a37.813,37.813,0,0,1-7.64,7.969,42.373,42.373,0,0,1-9.953,5.684,57.907,57.907,0,0,1-12.238,3.4,87.564,87.564,0,0,1-14.512,1.13,87.086,87.086,0,0,1-11.756-.6,93.221,93.221,0,0,1-10.141-2.209l-.371-.1V51.466l.633.175a124.228,124.228,0,0,0,13.518,3.183,52.78,52.78,0,0,0,7.318.594c6.521,0,11.363-1.078,14.391-3.2a30.051,30.051,0,0,0,7.753-7.946c.651-1.045,3.057-6.529,7.151-16.3,4.057-9.685,7.055-17.011,8.914-21.782Zm41.09,1h-39.668L2104.04,6.2l-.068.174c-1.856,4.773-4.881,12.169-8.992,21.98-4.176,9.968-6.54,15.349-7.226,16.448l-.008.012a31.046,31.046,0,0,1-8.018,8.22,17.371,17.371,0,0,1-6.194,2.55,40.64,40.64,0,0,1-8.772.836,53.768,53.768,0,0,1-7.46-.6,120.344,120.344,0,0,1-13.01-3.034V84.491a90.616,90.616,0,0,0,9.657,2.087,86.159,86.159,0,0,0,11.611.594,86.551,86.551,0,0,0,14.345-1.116,56.939,56.939,0,0,0,12.026-3.34,41.406,41.406,0,0,0,9.718-5.549,36.809,36.809,0,0,0,7.438-7.758c4.221-5.936,10.05-17.329,17.324-33.862,7.285-16.557,16.218-38.722,26.552-65.88,8.748-23.064,19.766-53.3,32.748-89.857,17.076-47.84,28.344-79.183,33.5-93.2h-38.663L2122.477-38.147,2122-39.585ZM877.377-187.825a75.715,75.715,0,0,1,16.146,1.634,54.388,54.388,0,0,1,13.693,4.914,47.293,47.293,0,0,1,11.215,8.2,52.708,52.708,0,0,1,8.708,11.467,70.715,70.715,0,0,1,6.588,16.442,125.512,125.512,0,0,1,3.66,21.1l.051.547H817.546l.019-.518a84.893,84.893,0,0,1,1.494-13.253,70.472,70.472,0,0,1,3.482-12.049,63.854,63.854,0,0,1,5.473-10.838,64.311,64.311,0,0,1,7.46-9.617,60.853,60.853,0,0,1,8.961-7.884,53.821,53.821,0,0,1,9.978-5.638A54.3,54.3,0,0,1,865.4-186.7,62.367,62.367,0,0,1,877.377-187.825Zm58.963,63.307a123.719,123.719,0,0,0-3.577-20.388,69.734,69.734,0,0,0-6.492-16.209,51.7,51.7,0,0,0-8.542-11.251,46.306,46.306,0,0,0-10.978-8.027,53.389,53.389,0,0,0-13.442-4.822,74.705,74.705,0,0,0-15.932-1.611,61.373,61.373,0,0,0-11.786,1.108,53.286,53.286,0,0,0-10.783,3.32,52.818,52.818,0,0,0-9.793,5.533,59.882,59.882,0,0,0-8.813,7.755,63.345,63.345,0,0,0-7.344,9.467,62.877,62.877,0,0,0-5.386,10.668A69.463,69.463,0,0,0,820.04-137.1a83.562,83.562,0,0,0-1.456,12.578Zm954.191-62.309a55.737,55.737,0,0,1,11.8,1.228,49.9,49.9,0,0,1,10.83,3.688,52.08,52.08,0,0,1,9.843,6.144,62.611,62.611,0,0,1,8.846,8.587,55.941,55.941,0,0,1,7.318,11.152,75.577,75.577,0,0,1,5.215,13.777,110.2,110.2,0,0,1,3.123,16.395,164.06,164.06,0,0,1,1.039,19.012,169.468,169.468,0,0,1-1.008,18.96,119.506,119.506,0,0,1-3.027,16.639,86.306,86.306,0,0,1-5.054,14.319,66.5,66.5,0,0,1-7.087,11.992,62.52,62.52,0,0,1-8.664,9.468,49.92,49.92,0,0,1-9.8,6.776,46.773,46.773,0,0,1-10.932,4.069,52.5,52.5,0,0,1-12.041,1.355,74.157,74.157,0,0,1-15.08-1.458,53.774,53.774,0,0,1-12.9-4.385,46.228,46.228,0,0,1-10.7-7.318,49.861,49.861,0,0,1-8.473-10.238,85.728,85.728,0,0,1-6.416-12.354,96.815,96.815,0,0,1-4.58-13.751,129.407,129.407,0,0,1-3.66-31.677,161.837,161.837,0,0,1,1.058-19.006,112.551,112.551,0,0,1,3.179-16.575,80.5,80.5,0,0,1,5.307-14.142,62.168,62.168,0,0,1,7.443-11.7,61.074,61.074,0,0,1,9.156-9.162,52.819,52.819,0,0,1,10.466-6.553,53.52,53.52,0,0,1,11.762-3.931A63.277,63.277,0,0,1,1890.531-186.827Zm.4,162.561a51.515,51.515,0,0,0,11.811-1.328,45.79,45.79,0,0,0,10.7-3.982,48.93,48.93,0,0,0,9.606-6.641,61.529,61.529,0,0,0,8.524-9.317,65.481,65.481,0,0,0,6.98-11.811,85.286,85.286,0,0,0,4.994-14.152,118.5,118.5,0,0,0,3-16.5,168.423,168.423,0,0,0,1-18.847,163.112,163.112,0,0,0-1.032-18.895,109.231,109.231,0,0,0-3.093-16.245,74.593,74.593,0,0,0-5.145-13.595,54.933,54.933,0,0,0-7.186-10.953,61.594,61.594,0,0,0-8.7-8.45,51.056,51.056,0,0,0-9.653-6.026,48.893,48.893,0,0,0-10.613-3.614,54.727,54.727,0,0,0-11.589-1.206,62.289,62.289,0,0,0-12.834,1.287,52.514,52.514,0,0,0-11.542,3.857,51.818,51.818,0,0,0-10.267,6.429,60.066,60.066,0,0,0-9.005,9.012,61.161,61.161,0,0,0-7.323,11.514,79.511,79.511,0,0,0-5.24,13.966,111.543,111.543,0,0,0-3.15,16.427,160.859,160.859,0,0,0-1.051,18.888,128.405,128.405,0,0,0,3.629,31.431,95.846,95.846,0,0,0,4.532,13.609,84.736,84.736,0,0,0,6.34,12.21,48.846,48.846,0,0,0,8.3,10.033A45.23,45.23,0,0,0,1863.393-30a52.789,52.789,0,0,0,12.661,4.3A73.167,73.167,0,0,0,1890.93-24.265ZM467.1-109.751v29.868a61.31,61.31,0,0,1-1.889,15.542,47.581,47.581,0,0,1-5.677,13.232,47.805,47.805,0,0,1-9.46,10.886,62.072,62.072,0,0,1-13.212,8.52,86.577,86.577,0,0,1-18.176,6.627,80.889,80.889,0,0,1-18.789,2.21,46.378,46.378,0,0,1-14.687-2.272,41.4,41.4,0,0,1-12.583-6.822,29.633,29.633,0,0,1-8.681-10.817,33.406,33.406,0,0,1-2.892-14.14,42.854,42.854,0,0,1,1.049-9.7,32.307,32.307,0,0,1,3.157-8.316,30.024,30.024,0,0,1,5.267-6.905,35.423,35.423,0,0,1,7.355-5.47,54.829,54.829,0,0,1,12.344-4.89,127.16,127.16,0,0,1,17.193-3.359l21.77-2.8a144.879,144.879,0,0,0,20.3-3.981,61.314,61.314,0,0,0,16.837-6.929ZM399.9-23.866a79.88,79.88,0,0,0,18.556-2.183A85.552,85.552,0,0,0,436.426-32.6a61.079,61.079,0,0,0,13-8.382,46.811,46.811,0,0,0,9.263-10.658,46.573,46.573,0,0,0,5.557-12.954A60.309,60.309,0,0,0,466.1-79.883v-28.059a64.044,64.044,0,0,1-16.345,6.574,145.86,145.86,0,0,1-20.441,4.008l-21.764,2.8A126.16,126.16,0,0,0,390.5-91.234a53.834,53.834,0,0,0-12.118,4.8,34.432,34.432,0,0,0-7.15,5.315,29.023,29.023,0,0,0-5.092,6.675,31.313,31.313,0,0,0-3.058,8.059,41.852,41.852,0,0,0-1.023,9.472,32.42,32.42,0,0,0,2.8,13.719,28.641,28.641,0,0,0,8.394,10.452,40.4,40.4,0,0,0,12.28,6.658A45.379,45.379,0,0,0,399.9-23.866Z" transform="translate(-17.473 301.858)" fill="#fff" opacity="0.07"/>
</svg>
