<svg xmlns="http://www.w3.org/2000/svg" width="1585.174" height="127.435" viewBox="0 0 1585.174 127.435">
  <g id="グループ_18" data-name="グループ 18" transform="translate(647.293 -5191.107)">
    <path id="パス_18" data-name="パス 18" d="M50.33-98q18.119,0,28.12,9.546t11.1,21.69h-12.6a26.22,26.22,0,0,0-8.54-14.612q-6.4-5.39-17.956-5.39-14.092,0-22.762,9.9T19.028-46.5q0,16.755,7.825,27.178T50.2-8.9q14.287,0,21.755-10.975,3.961-5.78,5.91-15.2h12.6Q88.775-20,79.293-9.806,67.929,2.468,48.641,2.468,32.016,2.468,20.716-7.6,5.845-20.911,5.845-48.706q0-21.106,11.17-34.614Q29.094-98,50.33-98ZM136.211-7.533q11.625,0,15.943-8.8a43.839,43.839,0,0,0,4.319-19.58q0-9.741-3.117-15.846-4.936-9.611-17.015-9.611-10.715,0-15.586,8.183t-4.871,19.742q0,11.1,4.871,18.508T136.211-7.533Zm.455-64.032A31.494,31.494,0,0,1,159.395-62.6q9.287,8.962,9.287,26.366,0,16.82-8.183,27.795T135.107,2.533q-14.352,0-22.794-9.709T103.87-33.25q0-17.534,8.9-27.925T136.665-71.565Zm49.9,2.013h11.1v9.871a31.147,31.147,0,0,1,10.456-8.767A27.882,27.882,0,0,1,220.4-71.111q14.807,0,20,10.326,2.857,5.65,2.857,16.17V0H231.378V-43.835A23.737,23.737,0,0,0,229.5-54.1q-3.117-6.494-11.3-6.494a23.009,23.009,0,0,0-6.819.844,17.561,17.561,0,0,0-8.442,5.715,17.2,17.2,0,0,0-3.8,7.111,47.866,47.866,0,0,0-.877,10.488V0H186.569Zm80.3-19.417h11.819v19.417h11.1v9.546h-11.1v45.394q0,3.637,2.468,4.871a10.489,10.489,0,0,0,4.546.714q.844,0,1.818-.032t2.273-.162V0A26.1,26.1,0,0,1,285.6.844a39.823,39.823,0,0,1-4.708.26q-8.183,0-11.1-4.189t-2.922-10.878V-60.006h-9.417v-9.546h9.417Zm47.566,70.461a9.626,9.626,0,0,0,3.7,7.988A13.724,13.724,0,0,0,326.9-7.6a26.656,26.656,0,0,0,11.949-2.857q9.741-4.741,9.741-15.521v-9.417a20,20,0,0,1-5.52,2.273,47.038,47.038,0,0,1-6.624,1.3l-7.079.909q-6.364.844-9.546,2.663Q314.431-25.2,314.431-18.508Zm28.314-23.639q4.026-.52,5.39-3.377A10.275,10.275,0,0,0,348.915-50q0-5.975-4.254-8.67t-12.177-2.7q-9.157,0-12.988,4.936-2.143,2.728-2.792,8.118h-10.91q.325-12.858,8.345-17.891a34.263,34.263,0,0,1,18.606-5.033q12.274,0,19.937,4.676,7.6,4.676,7.6,14.547v40.069a5.13,5.13,0,0,0,.747,2.922q.747,1.1,3.15,1.1.779,0,1.753-.1t2.078-.292V.325a32.556,32.556,0,0,1-4.156.974,30.373,30.373,0,0,1-3.9.195q-6.04,0-8.767-4.286a16.541,16.541,0,0,1-2.013-6.429A29.74,29.74,0,0,1,338.914-1.1a31.739,31.739,0,0,1-14.742,3.442q-9.676,0-15.813-5.877a19.522,19.522,0,0,1-6.137-14.709q0-9.676,6.04-15t15.846-6.559Zm67.5-29.418q11.754,0,19.125,5.715t8.865,19.677H426.873a20.98,20.98,0,0,0-4.741-10.683q-3.7-4.254-11.884-4.254-11.17,0-15.976,10.91-3.117,7.079-3.117,17.469,0,10.456,4.416,17.6t13.9,7.144q7.273,0,11.527-4.448t5.877-12.177h11.365Q436.289-10.78,428.5-4.384t-19.937,6.4q-13.638,0-21.755-9.969T378.686-32.86q0-18.313,8.9-28.509A28.749,28.749,0,0,1,410.248-71.565Zm46.007-17.4h11.819v19.417h11.1v9.546h-11.1v45.394q0,3.637,2.468,4.871a10.489,10.489,0,0,0,4.546.714q.844,0,1.818-.032t2.273-.162V0a26.1,26.1,0,0,1-4.189.844,39.823,39.823,0,0,1-4.708.26q-8.183,0-11.1-4.189t-2.922-10.878V-60.006h-9.417v-9.546h9.417ZM547.49-69.552v46.173a19.468,19.468,0,0,0,1.688,8.7Q552.3-8.442,560.8-8.442q12.209,0,16.625-10.91,2.4-5.845,2.4-16.041V-69.552H591.52V0H580.48l.13-10.261a23.58,23.58,0,0,1-5.65,6.689,24.861,24.861,0,0,1-16.235,5.455q-14.872,0-20.262-9.936-2.922-5.325-2.922-14.222V-69.552ZM620.707-21.82q.52,5.845,2.922,8.962,4.416,5.65,15.326,5.65a22.6,22.6,0,0,0,11.43-2.825,9.381,9.381,0,0,0,4.936-8.735,7.469,7.469,0,0,0-3.961-6.819q-2.533-1.429-10-3.312l-9.287-2.338q-8.9-2.208-13.118-4.936-7.533-4.741-7.533-13.118a20.044,20.044,0,0,1,7.111-15.976q7.111-6.1,19.125-6.1,15.716,0,22.665,9.222a20.012,20.012,0,0,1,4.221,12.6H653.5a13.524,13.524,0,0,0-2.792-7.208q-4.026-4.611-13.962-4.611-6.624,0-10.033,2.533a7.938,7.938,0,0,0-3.409,6.689q0,4.546,4.481,7.273a26.927,26.927,0,0,0,7.663,2.857l7.728,1.883q12.6,3.052,16.885,5.91,6.819,4.481,6.819,14.092a21.475,21.475,0,0,1-7.046,16.041q-7.046,6.754-21.463,6.754-15.521,0-21.983-7.046a26.647,26.647,0,0,1-6.916-17.437Z" transform="translate(271 5289.104)" fill="#fff" opacity="0.1"/>
    <path id="パス_19" data-name="パス 19" d="M10.207-96.116H22.9v46.848L69.748-96.116H87.741L47.764-57.382,88.854,0H71.907L38.276-48.222,22.9-33.5V0H10.207ZM131.215-71.646a31.964,31.964,0,0,1,14.46,3.5,26.665,26.665,0,0,1,10.665,9.062,31.264,31.264,0,0,1,4.711,12.366q1.047,4.842,1.047,15.441H110.736q.327,10.665,5.038,17.11t14.591,6.445q9.226,0,14.722-6.085a20.513,20.513,0,0,0,4.449-8.179h11.581a24.391,24.391,0,0,1-3.042,8.6,30.6,30.6,0,0,1-5.791,7.753A27.445,27.445,0,0,1,139,1.439a40.349,40.349,0,0,1-9.618,1.047A29.511,29.511,0,0,1,107.2-7.034q-9.095-9.52-9.095-26.663,0-16.881,9.16-27.415T131.215-71.646Zm18.778,31.014q-.72-7.655-3.337-12.235-4.842-8.506-16.161-8.506a17.914,17.914,0,0,0-13.609,5.856,22.122,22.122,0,0,0-5.823,14.885ZM209.76-71.646a31.964,31.964,0,0,1,14.46,3.5,26.665,26.665,0,0,1,10.665,9.062A31.264,31.264,0,0,1,239.6-46.717q1.047,4.842,1.047,15.441H189.28q.327,10.665,5.038,17.11t14.591,6.445q9.226,0,14.722-6.085a20.513,20.513,0,0,0,4.449-8.179h11.581a24.391,24.391,0,0,1-3.042,8.6,30.6,30.6,0,0,1-5.791,7.753,27.445,27.445,0,0,1-13.282,7.066,40.349,40.349,0,0,1-9.618,1.047,29.511,29.511,0,0,1-22.181-9.52q-9.095-9.52-9.095-26.663,0-16.881,9.16-27.415T209.76-71.646Zm18.778,31.014q-.72-7.655-3.337-12.235-4.842-8.506-16.161-8.506a17.914,17.914,0,0,0-13.609,5.856,22.121,22.121,0,0,0-5.823,14.885ZM288.7-7.917q8.244,0,13.708-6.9t5.463-20.643a38.532,38.532,0,0,0-2.421-14.395q-4.58-11.581-16.75-11.581-12.235,0-16.75,12.235-2.421,6.543-2.421,16.619a35.23,35.23,0,0,0,2.421,13.806Q276.527-7.917,288.7-7.917Zm-30.49-61.831h11.45v9.291a28.586,28.586,0,0,1,7.721-7.394,24.851,24.851,0,0,1,14-3.926A26.329,26.329,0,0,1,311.6-62.649q8.31,9.127,8.31,26.074,0,22.9-11.974,32.715a27.052,27.052,0,0,1-17.666,6.216,23.98,23.98,0,0,1-13.282-3.468,30.6,30.6,0,0,1-7-6.739v35.79H258.206Zm120.71,0H390.89V0H378.916Zm0-26.368H390.89v13.348H378.916Zm33.79,26.041H423.9v9.945a31.382,31.382,0,0,1,10.534-8.833A28.091,28.091,0,0,1,446.8-71.646q14.918,0,20.152,10.4,2.879,5.692,2.879,16.292V0H457.853V-44.165a23.915,23.915,0,0,0-1.9-10.338q-3.141-6.543-11.385-6.543a23.182,23.182,0,0,0-6.87.851,17.693,17.693,0,0,0-8.506,5.758,17.334,17.334,0,0,0-3.828,7.165,48.226,48.226,0,0,0-.883,10.567V0H412.707ZM534.856-89.639h11.908v19.563h11.188v9.618H546.764v45.735q0,3.664,2.486,4.907a10.568,10.568,0,0,0,4.58.72q.851,0,1.832-.033t2.29-.164V0a26.292,26.292,0,0,1-4.22.851,40.123,40.123,0,0,1-4.744.262q-8.244,0-11.188-4.22t-2.944-10.959v-46.39h-9.487v-9.618h9.487Zm66.7,82.049q11.712,0,16.063-8.866a44.169,44.169,0,0,0,4.351-19.727q0-9.814-3.141-15.965-4.973-9.684-17.143-9.684-10.8,0-15.7,8.244T581.078-33.7q0,11.188,4.907,18.647T601.558-7.59Zm.458-64.514a31.731,31.731,0,0,1,22.9,9.029q9.356,9.029,9.356,26.564,0,16.946-8.244,28T600.446,2.552q-14.46,0-22.966-9.782T568.974-33.5q0-17.666,8.964-28.135T602.016-72.1Zm62.056,2.028v46.521a19.615,19.615,0,0,0,1.7,8.768q3.141,6.281,11.712,6.281,12.3,0,16.75-10.992,2.421-5.889,2.421-16.161V-70.075h11.777V0H697.31l.131-10.338A23.756,23.756,0,0,1,691.749-3.6a25.048,25.048,0,0,1-16.357,5.5q-14.983,0-20.414-10.011-2.944-5.365-2.944-14.329V-70.075ZM757.862-72.1q11.843,0,19.269,5.758t8.931,19.825h-11.45a21.138,21.138,0,0,0-4.776-10.763q-3.729-4.286-11.974-4.286-11.254,0-16.1,10.992-3.141,7.132-3.141,17.6,0,10.534,4.449,17.731t14,7.2q7.328,0,11.614-4.482T774.612-24.8h11.45Q784.1-10.861,776.247-4.417T756.16,2.028q-13.74,0-21.919-10.043t-8.179-25.092q0-18.451,8.964-28.724A28.965,28.965,0,0,1,757.862-72.1Zm44-24.34h11.777v35.855a34,34,0,0,1,7.524-7.459q5.692-3.729,14.2-3.729,15.245,0,20.676,10.665,2.944,5.823,2.944,16.161V0h-12.1V-44.165q0-7.721-1.963-11.319-3.206-5.758-12.039-5.758A20.056,20.056,0,0,0,819.591-56.2q-5.954,5.038-5.954,19.04V0H801.859Z" transform="translate(-657 5290.104)" fill="none" stroke="#fff" stroke-width="1" opacity="0.43"/>
  </g>
</svg>
