<svg xmlns="http://www.w3.org/2000/svg" width="4572.462" height="390.029" viewBox="0 0 4572.462 390.029">
  <g id="marquee" transform="translate(1130.526 -3034.642)">
    <path id="パス_21" data-name="パス 21" d="M154.773-301.358q55.718,0,86.473,29.357t34.15,66.7H236.653q-6.59-28.358-26.261-44.934t-55.219-16.576q-43.336,0-70,30.455T58.514-142.99q0,51.524,24.065,83.577T154.374-27.36q43.936,0,66.9-33.75,12.182-17.774,18.173-46.731h38.743Q273-61.51,243.842-30.156,208.894,7.589,149.581,7.589q-51.125,0-85.874-30.955Q17.974-64.306,17.974-149.78q0-64.9,34.35-106.444Q89.469-301.358,154.773-301.358ZM361.558-56.917q0,15.577,11.383,24.564t26.96,8.987a81.972,81.972,0,0,0,36.746-8.787Q466.6-46.731,466.6-79.883V-108.84a61.5,61.5,0,0,1-16.975,6.99,144.65,144.65,0,0,1-20.37,3.994l-21.768,2.8q-19.571,2.6-29.357,8.188Q361.558-77.486,361.558-56.917ZM448.63-129.61q12.382-1.6,16.576-10.385,2.4-4.793,2.4-13.78,0-18.373-13.081-26.661t-37.445-8.288q-28.159,0-39.941,15.178-6.59,8.388-8.587,24.963H335q1-39.542,25.662-55.019t57.216-15.477q37.745,0,61.31,14.379,23.366,14.379,23.366,44.734V-36.746a15.777,15.777,0,0,0,2.3,8.987q2.3,3.4,9.686,3.4,2.4,0,5.392-.3t6.391-.9V1a100.118,100.118,0,0,1-12.781,3,93.4,93.4,0,0,1-11.982.6q-18.573,0-26.96-13.181-4.394-6.99-6.191-19.771Q457.417-13.979,436.847-3.4A97.6,97.6,0,0,1,391.514,7.189q-29.756,0-48.629-18.073T324.013-56.118q0-29.756,18.573-46.132t48.729-20.17ZM595.1-67.1q1.6,17.974,8.987,27.56,13.58,17.375,47.131,17.375,19.971,0,35.148-8.687t15.178-26.861q0-13.78-12.182-20.969-7.789-4.394-30.755-10.185l-28.558-7.189q-27.36-6.79-40.341-15.178-23.166-14.579-23.166-40.341,0-30.355,21.868-49.128t58.814-18.772q48.329,0,69.7,28.358,13.38,17.974,12.981,38.743h-33.95a41.588,41.588,0,0,0-8.587-22.167q-12.382-14.179-42.937-14.179-20.37,0-30.855,7.789t-10.485,20.57q0,13.979,13.78,22.367,7.988,4.993,23.565,8.787l23.765,5.792q38.743,9.386,51.924,18.173,20.969,13.78,20.969,43.336,0,28.558-21.668,49.328t-66,20.77q-47.73,0-67.6-21.668T560.554-67.1ZM879.574-218.679a97.563,97.563,0,0,1,44.135,10.684q21.369,10.684,32.552,27.659,10.784,16.176,14.379,37.745,3.2,14.778,3.2,47.131H817.065q1,32.552,15.377,52.223t44.535,19.671q28.159,0,44.934-18.573A62.611,62.611,0,0,0,935.492-67.1H970.84q-1.4,11.783-9.286,26.261a93.4,93.4,0,0,1-17.674,23.665Q927.5-1.2,903.339,4.394a123.155,123.155,0,0,1-29.357,3.2q-39.941,0-67.7-29.057t-27.759-81.381q0-51.524,27.959-83.677T879.574-218.679Zm57.316,94.661q-2.2-23.366-10.185-37.345-14.778-25.962-49.328-25.962-24.764,0-41.539,17.874t-17.774,45.433ZM1186.9-94.661q1.4,24.963,11.783,40.541,19.771,29.157,69.7,29.157,22.367,0,40.74-6.391,35.548-12.382,35.548-44.335,0-23.965-14.978-34.15-15.178-9.985-47.53-17.375l-39.742-8.987q-38.943-8.787-55.119-19.372-27.959-18.373-27.959-54.919,0-39.542,27.36-64.9t77.486-25.363q46.132,0,78.385,22.267t32.253,71.2h-37.345q-3-23.565-12.781-36.147-18.173-22.966-61.709-22.966-35.148,0-50.526,14.778t-15.377,34.35q0,21.568,17.974,31.554,11.783,6.391,53.322,15.977l41.14,9.386q29.756,6.79,45.933,18.573,27.959,20.57,27.959,59.712,0,48.729-35.448,69.7T1265.583,8.587q-54.72,0-85.674-27.959-30.955-27.759-30.355-75.29ZM1448.4-273.6h36.347v59.712h34.15v29.357h-34.15v139.6q0,11.184,7.589,14.978,4.194,2.2,13.979,2.2,2.6,0,5.592-.1t6.99-.5V0a80.249,80.249,0,0,1-12.881,2.6,122.464,122.464,0,0,1-14.479.8q-25.163,0-34.15-12.881T1448.4-42.937V-184.529h-28.958v-29.357H1448.4Zm154.661,59.712V-71.895q0,16.376,5.192,26.761,9.586,19.172,35.748,19.172,37.545,0,51.125-33.551,7.389-17.974,7.389-49.328V-213.886h35.947V0h-33.95l.4-31.554a72.511,72.511,0,0,1-17.375,20.57q-20.57,16.775-49.927,16.775-45.733,0-62.309-30.555-8.987-16.376-8.987-43.736V-213.886ZM1829.62-104.447q0,34.35,14.579,57.516t46.731,23.166q24.963,0,41.04-21.469t16.076-61.61q0-40.541-16.576-60.012t-40.94-19.471q-27.16,0-44.035,20.77T1829.62-104.447Zm54.121-113.234q24.564,0,41.14,10.385,9.586,5.991,21.768,20.969V-294.368H1981.2V0h-32.353V-29.756Q1936.264-9.985,1919.089-1.2t-39.342,8.787q-35.747,0-61.909-30.056t-26.162-79.983q0-46.731,23.865-80.981T1883.741-217.681Zm296.453,3.794h39.742q-7.589,20.57-33.75,93.862-19.571,55.119-32.752,89.868Q2122.279,51.724,2109.5,69.7t-43.936,17.974a86.207,86.207,0,0,1-11.683-.6,92.3,92.3,0,0,1-10.085-2.2V52.124a124.009,124.009,0,0,0,13.58,3.2,53.009,53.009,0,0,0,7.389.6q9.985,0,14.678-3.3a30.4,30.4,0,0,0,7.889-8.088q1-1.6,7.189-16.376t8.987-21.968l-79.084-220.077h40.74l57.316,174.145Z" transform="translate(-1148 3336.5)" fill="none" stroke="#fff" stroke-width="1" opacity="0.1"/>
    <path id="パス_20" data-name="パス 20" d="M154.773-301.358q55.718,0,86.473,29.357t34.15,66.7H236.653q-6.59-28.358-26.261-44.934t-55.219-16.576q-43.336,0-70,30.455T58.514-142.99q0,51.524,24.065,83.577T154.374-27.36q43.936,0,66.9-33.75,12.182-17.774,18.173-46.731h38.743Q273-61.51,243.842-30.156,208.894,7.589,149.581,7.589q-51.125,0-85.874-30.955Q17.974-64.306,17.974-149.78q0-64.9,34.35-106.444Q89.469-301.358,154.773-301.358ZM361.558-56.917q0,15.577,11.383,24.564t26.96,8.987a81.972,81.972,0,0,0,36.746-8.787Q466.6-46.731,466.6-79.883V-108.84a61.5,61.5,0,0,1-16.975,6.99,144.65,144.65,0,0,1-20.37,3.994l-21.768,2.8q-19.571,2.6-29.357,8.188Q361.558-77.486,361.558-56.917ZM448.63-129.61q12.382-1.6,16.576-10.385,2.4-4.793,2.4-13.78,0-18.373-13.081-26.661t-37.445-8.288q-28.159,0-39.941,15.178-6.59,8.388-8.587,24.963H335q1-39.542,25.662-55.019t57.216-15.477q37.745,0,61.31,14.379,23.366,14.379,23.366,44.734V-36.746a15.777,15.777,0,0,0,2.3,8.987q2.3,3.4,9.686,3.4,2.4,0,5.392-.3t6.391-.9V1a100.118,100.118,0,0,1-12.781,3,93.4,93.4,0,0,1-11.982.6q-18.573,0-26.96-13.181-4.394-6.99-6.191-19.771Q457.417-13.979,436.847-3.4A97.6,97.6,0,0,1,391.514,7.189q-29.756,0-48.629-18.073T324.013-56.118q0-29.756,18.573-46.132t48.729-20.17ZM595.1-67.1q1.6,17.974,8.987,27.56,13.58,17.375,47.131,17.375,19.971,0,35.148-8.687t15.178-26.861q0-13.78-12.182-20.969-7.789-4.394-30.755-10.185l-28.558-7.189q-27.36-6.79-40.341-15.178-23.166-14.579-23.166-40.341,0-30.355,21.868-49.128t58.814-18.772q48.329,0,69.7,28.358,13.38,17.974,12.981,38.743h-33.95a41.588,41.588,0,0,0-8.587-22.167q-12.382-14.179-42.937-14.179-20.37,0-30.855,7.789t-10.485,20.57q0,13.979,13.78,22.367,7.988,4.993,23.565,8.787l23.765,5.792q38.743,9.386,51.924,18.173,20.969,13.78,20.969,43.336,0,28.558-21.668,49.328t-66,20.77q-47.73,0-67.6-21.668T560.554-67.1ZM879.574-218.679a97.563,97.563,0,0,1,44.135,10.684q21.369,10.684,32.552,27.659,10.784,16.176,14.379,37.745,3.2,14.778,3.2,47.131H817.065q1,32.552,15.377,52.223t44.535,19.671q28.159,0,44.934-18.573A62.611,62.611,0,0,0,935.492-67.1H970.84q-1.4,11.783-9.286,26.261a93.4,93.4,0,0,1-17.674,23.665Q927.5-1.2,903.339,4.394a123.155,123.155,0,0,1-29.357,3.2q-39.941,0-67.7-29.057t-27.759-81.381q0-51.524,27.959-83.677T879.574-218.679Zm57.316,94.661q-2.2-23.366-10.185-37.345-14.778-25.962-49.328-25.962-24.764,0-41.539,17.874t-17.774,45.433ZM1186.9-94.661q1.4,24.963,11.783,40.541,19.771,29.157,69.7,29.157,22.367,0,40.74-6.391,35.548-12.382,35.548-44.335,0-23.965-14.978-34.15-15.178-9.985-47.53-17.375l-39.742-8.987q-38.943-8.787-55.119-19.372-27.959-18.373-27.959-54.919,0-39.542,27.36-64.9t77.486-25.363q46.132,0,78.385,22.267t32.253,71.2h-37.345q-3-23.565-12.781-36.147-18.173-22.966-61.709-22.966-35.148,0-50.526,14.778t-15.377,34.35q0,21.568,17.974,31.554,11.783,6.391,53.322,15.977l41.14,9.386q29.756,6.79,45.933,18.573,27.959,20.57,27.959,59.712,0,48.729-35.448,69.7T1265.583,8.587q-54.72,0-85.674-27.959-30.955-27.759-30.355-75.29ZM1448.4-273.6h36.347v59.712h34.15v29.357h-34.15v139.6q0,11.184,7.589,14.978,4.194,2.2,13.979,2.2,2.6,0,5.592-.1t6.99-.5V0a80.249,80.249,0,0,1-12.881,2.6,122.464,122.464,0,0,1-14.479.8q-25.163,0-34.15-12.881T1448.4-42.937V-184.529h-28.958v-29.357H1448.4Zm154.661,59.712V-71.895q0,16.376,5.192,26.761,9.586,19.172,35.748,19.172,37.545,0,51.125-33.551,7.389-17.974,7.389-49.328V-213.886h35.947V0h-33.95l.4-31.554a72.511,72.511,0,0,1-17.375,20.57q-20.57,16.775-49.927,16.775-45.733,0-62.309-30.555-8.987-16.376-8.987-43.736V-213.886ZM1829.62-104.447q0,34.35,14.579,57.516t46.731,23.166q24.963,0,41.04-21.469t16.076-61.61q0-40.541-16.576-60.012t-40.94-19.471q-27.16,0-44.035,20.77T1829.62-104.447Zm54.121-113.234q24.564,0,41.14,10.385,9.586,5.991,21.768,20.969V-294.368H1981.2V0h-32.353V-29.756Q1936.264-9.985,1919.089-1.2t-39.342,8.787q-35.747,0-61.909-30.056t-26.162-79.983q0-46.731,23.865-80.981T1883.741-217.681Zm296.453,3.794h39.742q-7.589,20.57-33.75,93.862-19.571,55.119-32.752,89.868Q2122.279,51.724,2109.5,69.7t-43.936,17.974a86.207,86.207,0,0,1-11.683-.6,92.3,92.3,0,0,1-10.085-2.2V52.124a124.009,124.009,0,0,0,13.58,3.2,53.009,53.009,0,0,0,7.389.6q9.985,0,14.678-3.3a30.4,30.4,0,0,0,7.889-8.088q1-1.6,7.189-16.376t8.987-21.968l-79.084-220.077h40.74l57.316,174.145Z" transform="translate(1222 3336)" fill="#fff" opacity="0.05"/>
  </g>
</svg>
