<svg xmlns="http://www.w3.org/2000/svg" width="2591.656" height="380.643" viewBox="0 0 2591.656 380.643">
  <path id="Keep_in_touch" data-name="Keep in touch" d="M2446.966-294.868h36.947V-186.36a150.768,150.768,0,0,1,11.28-12.7,69.922,69.922,0,0,1,10.915-9.052,66.667,66.667,0,0,1,19.666-8.6,94.569,94.569,0,0,1,23.942-2.862,105.949,105.949,0,0,1,21.5,2.045,69.879,69.879,0,0,1,17.777,6.149,55.1,55.1,0,0,1,14.031,10.266,57.638,57.638,0,0,1,10.25,14.366,78.833,78.833,0,0,1,6.787,21.356,159.2,159.2,0,0,1,2.255,28.2V.5h-37.946V-134.8a121.248,121.248,0,0,0-1.49-20.335,45.857,45.857,0,0,0-4.44-13.975,30.967,30.967,0,0,0-5.869-7.563,31.6,31.6,0,0,0-7.987-5.406,42.081,42.081,0,0,0-10.139-3.255,65.1,65.1,0,0,0-12.312-1.089,59.38,59.38,0,0,0-21.142,3.812,65.747,65.747,0,0,0-19.076,11.447,38.333,38.333,0,0,0-7.848,9.278,56.668,56.668,0,0,0-5.628,12.707,94.035,94.035,0,0,0-3.389,16.152,157.48,157.48,0,0,0-1.132,19.6V.5h-36.947Zm35.947,1h-34.947V-.5h34.947V-113.434a158.458,158.458,0,0,1,1.14-19.722,95.049,95.049,0,0,1,3.427-16.325,57.665,57.665,0,0,1,5.73-12.931,39.345,39.345,0,0,1,8.054-9.519,66.742,66.742,0,0,1,19.367-11.619,60.377,60.377,0,0,1,21.5-3.877,66.1,66.1,0,0,1,12.5,1.107,43.08,43.08,0,0,1,10.38,3.335,32.587,32.587,0,0,1,8.239,5.578,31.953,31.953,0,0,1,6.062,7.811,46.839,46.839,0,0,1,4.549,14.287,122.208,122.208,0,0,1,1.505,20.506V-.5h35.946V-137.2a158.162,158.162,0,0,0-2.239-28.019,77.838,77.838,0,0,0-6.694-21.083,56.628,56.628,0,0,0-10.07-14.116,54.107,54.107,0,0,0-13.777-10.079,68.87,68.87,0,0,0-17.522-6.058,104.937,104.937,0,0,0-21.292-2.024,93.568,93.568,0,0,0-23.688,2.829,65.679,65.679,0,0,0-19.374,8.472,68.96,68.96,0,0,0-10.756,8.924,153.463,153.463,0,0,0-12.092,13.735l-.892,1.129Zm-2452.258,0H70.4v142.283L212.68-293.87h56.361l-.887.859L146.444-175.084,272.175.5H219.217l-.149-.214-102.315-146.7L70.4-102.036V.5H30.654Zm38.743,1H31.654V-.5H69.4V-102.464l.154-.148L116.9-147.949l.334.479L219.739-.5h50.49l-125.1-174.7.31-.3L266.573-292.87H213.094L69.4-149.172Zm1086.646-1h37.547v41.74h-37.547Zm36.547,1h-35.547v39.74h35.547ZM1632.009-274.1h37.347v59.712h34.15v30.357h-34.15v139.1a20.155,20.155,0,0,0,1.843,9.11,12.026,12.026,0,0,0,5.469,5.421l.008,0c2.711,1.42,7.336,2.14,13.748,2.14,1.714,0,3.59-.033,5.575-.1s4.316-.233,6.957-.5l.55-.055V.376l-.361.1a81.126,81.126,0,0,1-12.961,2.613,123.585,123.585,0,0,1-14.538.8c-8.409,0-15.574-1.094-21.3-3.253a31.459,31.459,0,0,1-7.648-4.092,24.906,24.906,0,0,1-5.617-5.751,47.607,47.607,0,0,1-6.813-14.96,72.692,72.692,0,0,1-2.264-18.777V-184.029h-28.958v-30.357h28.958Zm36.347,1h-35.347v59.712h-28.958v28.357h28.958V-42.937a71.687,71.687,0,0,0,2.23,18.518,46.611,46.611,0,0,0,6.667,14.647,23.912,23.912,0,0,0,5.392,5.52A30.466,30.466,0,0,0,1654.7-.293c5.608,2.116,12.655,3.188,20.942,3.188a122.519,122.519,0,0,0,14.419-.8,80.236,80.236,0,0,0,12.441-2.476v-27.43c-2.439.235-4.615.386-6.473.448-2,.067-3.884.1-5.608.1a55.726,55.726,0,0,1-8.465-.555,18.947,18.947,0,0,1-5.738-1.694h0a13,13,0,0,1-5.914-5.863,21.126,21.126,0,0,1-1.951-9.562v-140.1h34.15v-28.357h-34.15ZM1837.5-220.577a112.656,112.656,0,0,1,19.96,1.73,97.379,97.379,0,0,1,18.368,5.194,94.029,94.029,0,0,1,16.765,8.659,102.211,102.211,0,0,1,15.152,12.117,82.839,82.839,0,0,1,12.57,15.5,93.685,93.685,0,0,1,8.973,18.748,121.081,121.081,0,0,1,5.377,21.984,168.909,168.909,0,0,1,1.791,25.213,188.747,188.747,0,0,1-1.577,24.8,150.6,150.6,0,0,1-4.734,22.567,127.237,127.237,0,0,1-7.895,20.326,116.754,116.754,0,0,1-11.056,18.076,79.126,79.126,0,0,1-14.408,14.86,80.4,80.4,0,0,1-17.9,10.613,98.943,98.943,0,0,1-21.364,6.361A138.207,138.207,0,0,1,1832.7,8.289a113.9,113.9,0,0,1-21.025-1.875A90.954,90.954,0,0,1,1792.916.785,82.58,82.58,0,0,1,1776.427-8.6a87.529,87.529,0,0,1-14.2-13.137,96.11,96.11,0,0,1-11.418-16.292,105.857,105.857,0,0,1-8.152-18.855,129.437,129.437,0,0,1-4.887-21.408,169.38,169.38,0,0,1-1.628-23.955,184.364,184.364,0,0,1,1.715-25.658,140.437,140.437,0,0,1,5.149-22.923,114.233,114.233,0,0,1,8.588-20.184,102.806,102.806,0,0,1,12.029-17.435,93.315,93.315,0,0,1,14.933-14.055,86.6,86.6,0,0,1,17.3-10.043,93.941,93.941,0,0,1,19.651-6.023A116.558,116.558,0,0,1,1837.5-220.577ZM1832.7,7.289a137.177,137.177,0,0,0,24.636-2.1,97.932,97.932,0,0,0,21.148-6.3,79.4,79.4,0,0,0,17.675-10.481,78.136,78.136,0,0,0,14.225-14.672,115.723,115.723,0,0,0,10.961-17.921,126.258,126.258,0,0,0,7.833-20.165,149.585,149.585,0,0,0,4.7-22.417,187.737,187.737,0,0,0,1.568-24.673,167.917,167.917,0,0,0-1.779-25.063,120.056,120.056,0,0,0-5.332-21.8,92.656,92.656,0,0,0-8.876-18.548,81.849,81.849,0,0,0-12.418-15.309,101.261,101.261,0,0,0-15-12,93.034,93.034,0,0,0-16.586-8.566,96.354,96.354,0,0,0-18.179-5.141,111.658,111.658,0,0,0-19.782-1.714,115.546,115.546,0,0,0-21.8,1.988,92.948,92.948,0,0,0-19.442,5.959,85.6,85.6,0,0,0-17.1,9.927,92.327,92.327,0,0,0-14.773,13.9,101.806,101.806,0,0,0-11.911,17.265,113.252,113.252,0,0,0-8.512,20.007,139.556,139.556,0,0,0-5.111,22.76,183.408,183.408,0,0,0-1.7,25.518,168.428,168.428,0,0,0,1.617,23.813A128.439,128.439,0,0,0,1743.61-57.2a104.868,104.868,0,0,0,8.074,18.677,95.118,95.118,0,0,0,11.3,16.122,86.542,86.542,0,0,0,14.035,12.987,81.585,81.585,0,0,0,16.288,9.273,89.944,89.944,0,0,0,18.557,5.567A112.9,112.9,0,0,0,1832.7,7.289Zm480.471-227.866a130.822,130.822,0,0,1,17.3,1.1,102.176,102.176,0,0,1,15.622,3.312,84.538,84.538,0,0,1,13.944,5.525,76.218,76.218,0,0,1,12.256,7.74,56.21,56.21,0,0,1,10.3,10.465,70.413,70.413,0,0,1,8,13.64,99.719,99.719,0,0,1,5.715,16.8,148.455,148.455,0,0,1,3.438,19.951l.059.553h-35.93l-.068-.42a73.088,73.088,0,0,0-5.206-17.975,58.178,58.178,0,0,0-9.256-14.628,31.811,31.811,0,0,0-6.452-5.634,38.022,38.022,0,0,0-8.168-4.034,64.367,64.367,0,0,0-21.55-3.241,57.821,57.821,0,0,0-15.815,2.078,45.928,45.928,0,0,0-13.36,6.223,49.133,49.133,0,0,0-10.947,10.38,68.428,68.428,0,0,0-8.549,14.572,106.669,106.669,0,0,0-7.155,24.2,168.06,168.06,0,0,0-2.389,29.319,121.586,121.586,0,0,0,3.38,29.485,86.071,86.071,0,0,0,10.125,24.373,47.021,47.021,0,0,0,7.681,9.51,41.922,41.922,0,0,0,9.6,6.784,47.116,47.116,0,0,0,11.536,4.075,63.792,63.792,0,0,0,13.5,1.362,55.1,55.1,0,0,0,19.865-3.387,41.639,41.639,0,0,0,15.221-10.139,62.366,62.366,0,0,0,10.97-16.073,92.436,92.436,0,0,0,6.976-21.129l.083-.4h35.93l-.08.57a148.888,148.888,0,0,1-4.133,19.907,107,107,0,0,1-6.4,17.061,81.42,81.42,0,0,1-8.666,14.21,69.052,69.052,0,0,1-10.939,11.347,81.242,81.242,0,0,1-12.9,8.66,86.036,86.036,0,0,1-14.576,6.183,100.355,100.355,0,0,1-16.245,3.707,125.633,125.633,0,0,1-17.908,1.235,100.753,100.753,0,0,1-20.008-1.926,82.411,82.411,0,0,1-17.895-5.783,78.165,78.165,0,0,1-15.766-9.641,87.3,87.3,0,0,1-13.621-13.489,106.365,106.365,0,0,1-10.973-16.359,109.48,109.48,0,0,1-7.837-18.276,123.984,123.984,0,0,1-4.7-20.183,151.33,151.33,0,0,1-1.565-22.085,198.085,198.085,0,0,1,1.715-26.666,145.476,145.476,0,0,1,5.148-23.559,113.059,113.059,0,0,1,8.588-20.448,97.207,97.207,0,0,1,12.032-17.327,98.257,98.257,0,0,1,14.692-13.788,86.219,86.219,0,0,1,16.585-9.855,87.548,87.548,0,0,1,18.466-5.913A102.445,102.445,0,0,1,2313.175-220.577Zm85.517,78.086a146.742,146.742,0,0,0-3.354-19.262,98.7,98.7,0,0,0-5.656-16.628,69.4,69.4,0,0,0-7.887-13.446,55.219,55.219,0,0,0-10.112-10.28,75.264,75.264,0,0,0-12.1-7.638,83.491,83.491,0,0,0-13.778-5.459,101.157,101.157,0,0,0-15.469-3.279,129.824,129.824,0,0,0-17.165-1.094,101.433,101.433,0,0,0-20.134,1.95,86.519,86.519,0,0,0-18.255,5.845,85.205,85.205,0,0,0-16.392,9.741,97.263,97.263,0,0,0-14.541,13.647,96.194,96.194,0,0,0-11.908,17.148,112.012,112.012,0,0,0-8.511,20.267,144.489,144.489,0,0,0-5.112,23.4,197.165,197.165,0,0,0-1.705,26.531,150.28,150.28,0,0,0,1.555,21.938,122.973,122.973,0,0,0,4.661,20.02,108.416,108.416,0,0,0,7.765,18.108,105.352,105.352,0,0,0,10.87,16.205,86.319,86.319,0,0,0,13.464,13.334A77.163,77.163,0,0,0,2270.5-1.928a81.41,81.41,0,0,0,17.678,5.712,99.733,99.733,0,0,0,19.808,1.906,124.642,124.642,0,0,0,17.765-1.224A99.376,99.376,0,0,0,2341.83.8a85.026,85.026,0,0,0,14.406-6.111,80.219,80.219,0,0,0,12.739-8.553,68.014,68.014,0,0,0,10.78-11.182,80.4,80.4,0,0,0,8.558-14.036,105.983,105.983,0,0,0,6.336-16.9,147.287,147.287,0,0,0,4.023-19.2H2364.7a93.092,93.092,0,0,1-6.97,20.961,63.362,63.362,0,0,1-11.148,16.33A42.636,42.636,0,0,1,2331-27.517a56.092,56.092,0,0,1-20.226,3.453,64.806,64.806,0,0,1-13.711-1.384,48.126,48.126,0,0,1-11.78-4.163,42.926,42.926,0,0,1-9.825-6.946,48.011,48.011,0,0,1-7.846-9.712,87.07,87.07,0,0,1-10.245-24.655,122.582,122.582,0,0,1-3.41-29.728,169.039,169.039,0,0,1,2.4-29.495,107.658,107.658,0,0,1,7.224-24.428,69.442,69.442,0,0,1,8.676-14.785,50.135,50.135,0,0,1,11.171-10.589,46.921,46.921,0,0,1,13.65-6.359,58.819,58.819,0,0,1,16.088-2.116,65.353,65.353,0,0,1,21.886,3.3,39.047,39.047,0,0,1,8.383,4.142,32.8,32.8,0,0,1,6.654,5.812,59.174,59.174,0,0,1,9.416,14.879,73.85,73.85,0,0,1,5.21,17.8ZM889.359-219.579a86.869,86.869,0,0,1,17.588,1.752,77.892,77.892,0,0,1,16.218,5.258A80.369,80.369,0,0,1,938-203.809a94.666,94.666,0,0,1,13.439,12.253A84.779,84.779,0,0,1,962.6-176.044a99.336,99.336,0,0,1,7.967,18.5,129.513,129.513,0,0,1,4.774,21.471,179.058,179.058,0,0,1,1.59,24.439,217.175,217.175,0,0,1-2.29,32.528,143.341,143.341,0,0,1-6.877,27.556,101.578,101.578,0,0,1-11.478,22.578A84.513,84.513,0,0,1,940.2-11.4a87.057,87.057,0,0,1-12.127,8.348,81.116,81.116,0,0,1-13.087,5.966A82.956,82.956,0,0,1,900.949,6.5a92.7,92.7,0,0,1-14.984,1.192A88.742,88.742,0,0,1,863.62,5.027a63.438,63.438,0,0,1-18.468-8h0a64.209,64.209,0,0,1-10.21-8.2,133.3,133.3,0,0,1-10.387-11.386V85.775H787.608V-213.388h35.949v27.358a100.7,100.7,0,0,1,10.438-11.792,76.976,76.976,0,0,1,12.356-9.694,70.853,70.853,0,0,1,19.908-9.048A85.659,85.659,0,0,1,889.359-219.579Zm-3.4,226.268A91.724,91.724,0,0,0,900.786,5.51a81.94,81.94,0,0,0,13.87-3.536,80.112,80.112,0,0,0,12.925-5.892,86.061,86.061,0,0,0,11.987-8.252A83.538,83.538,0,0,0,955.462-29.54,100.568,100.568,0,0,0,966.825-51.9a142.343,142.343,0,0,0,6.828-27.363,216.213,216.213,0,0,0,2.278-32.377,178.1,178.1,0,0,0-1.58-24.3,128.535,128.535,0,0,0-4.737-21.3,98.3,98.3,0,0,0-7.885-18.311,83.786,83.786,0,0,0-11.03-15.33,93.665,93.665,0,0,0-13.3-12.124,79.388,79.388,0,0,0-14.648-8.652,76.909,76.909,0,0,0-16.01-5.19,85.86,85.86,0,0,0-17.385-1.731,84.661,84.661,0,0,0-22.831,2.977,69.853,69.853,0,0,0-19.631,8.923l-.01.007a75.987,75.987,0,0,0-12.2,9.573,100.988,100.988,0,0,0-11.227,12.867l-.9,1.219v-29.375H788.608V84.775h34.947V-25.379l.889,1.1a135.872,135.872,0,0,0,11.192,12.386,63.173,63.173,0,0,0,10.053,8.074l.006,0a62.425,62.425,0,0,0,18.178,7.874A87.727,87.727,0,0,0,885.964,6.689ZM400.5-219.179a95.888,95.888,0,0,1,22.535,2.685,103.283,103.283,0,0,1,21.824,8.052,94.38,94.38,0,0,1,18.922,12.323,73.42,73.42,0,0,1,13.824,15.508,88.737,88.737,0,0,1,9.037,17.621,106.272,106.272,0,0,1,5.416,20.3,139.2,139.2,0,0,1,2.4,19.234c.531,7.829.8,17.247.8,27.993v.5H338.509a116.09,116.09,0,0,0,4.307,28.691,80.457,80.457,0,0,0,4.651,12.175,67.849,67.849,0,0,0,6.306,10.563,45.013,45.013,0,0,0,8.085,8.512,44.94,44.94,0,0,0,10.036,6.079,54.748,54.748,0,0,0,12.01,3.654,76.275,76.275,0,0,0,14,1.221,73.885,73.885,0,0,0,13.278-1.152,58.859,58.859,0,0,0,11.844-3.453,53.007,53.007,0,0,0,10.424-5.75,55.482,55.482,0,0,0,9.017-8.053,62.013,62.013,0,0,0,8.12-11.537,64.045,64.045,0,0,0,5.35-13.227l.1-.364h36.29l-.066.559a58.758,58.758,0,0,1-3.046,12.565,96.713,96.713,0,0,1-6.3,13.877,110.564,110.564,0,0,1-8.4,13.216,80.99,80.99,0,0,1-9.37,10.575h0a80.576,80.576,0,0,1-18.43,13.457A91.433,91.433,0,0,1,424.382,4.88a124.251,124.251,0,0,1-29.473,3.209A100.188,100.188,0,0,1,375.6,6.263,88.54,88.54,0,0,1,357.815.784,89.017,89.017,0,0,1,341.56-8.348a101.671,101.671,0,0,1-14.714-12.776A90.3,90.3,0,0,1,314.634-37.2a100.158,100.158,0,0,1-8.719-18.986,125.3,125.3,0,0,1-5.226-21.887,168.786,168.786,0,0,1-1.74-24.781,167.061,167.061,0,0,1,1.753-24.626,131.958,131.958,0,0,1,5.263-22.214,112.53,112.53,0,0,1,8.776-19.8,106.757,106.757,0,0,1,12.29-17.369,97.632,97.632,0,0,1,15.131-14.139,88.337,88.337,0,0,1,17.3-10.1,92.914,92.914,0,0,1,19.451-6.062A112.153,112.153,0,0,1,400.5-219.179ZM494.262-95.96c-.017-21.178-1.088-36.83-3.184-46.525l0-.023a105.307,105.307,0,0,0-5.366-20.125,87.762,87.762,0,0,0-8.936-17.425,72.433,72.433,0,0,0-13.638-15.3,93.382,93.382,0,0,0-18.722-12.191,102.282,102.282,0,0,0-21.612-7.975,94.892,94.892,0,0,0-22.3-2.657,111.154,111.154,0,0,0-21.4,2,91.958,91.958,0,0,0-19.242,6,87.328,87.328,0,0,0-17.1,9.99A96.613,96.613,0,0,0,327.785-186.2a105.751,105.751,0,0,0-12.174,17.206,111.556,111.556,0,0,0-8.7,19.62,130.977,130.977,0,0,0-5.222,22.046,166.058,166.058,0,0,0-1.742,24.478,167.8,167.8,0,0,0,1.729,24.634A124.276,124.276,0,0,0,306.862-56.5a99.158,99.158,0,0,0,8.631,18.8A89.3,89.3,0,0,0,327.57-21.814a100.682,100.682,0,0,0,14.568,12.65A88.016,88.016,0,0,0,358.21-.135,87.547,87.547,0,0,0,375.8,5.282a99.212,99.212,0,0,0,19.113,1.807,123.251,123.251,0,0,0,29.238-3.181l.006,0a90.439,90.439,0,0,0,22.1-8.143,79.6,79.6,0,0,0,18.209-13.3l.007-.007a79.948,79.948,0,0,0,9.253-10.444,109.522,109.522,0,0,0,8.324-13.1,95.754,95.754,0,0,0,6.234-13.732A58.473,58.473,0,0,0,491.2-66.6H456.8a64.953,64.953,0,0,1-5.33,13.069,63,63,0,0,1-8.253,11.726,56.485,56.485,0,0,1-9.184,8.2,54,54,0,0,1-10.62,5.858,59.843,59.843,0,0,1-12.046,3.512A74.88,74.88,0,0,1,397.9-23.065,77.283,77.283,0,0,1,383.72-24.3a55.745,55.745,0,0,1-12.229-3.722,45.947,45.947,0,0,1-10.259-6.215,46.02,46.02,0,0,1-8.266-8.7,68.862,68.862,0,0,1-6.4-10.718,81.432,81.432,0,0,1-4.71-12.327,117.548,117.548,0,0,1-4.364-29.458l-.016-.515ZM640.237-219.179a95.892,95.892,0,0,1,22.535,2.685,103.273,103.273,0,0,1,21.824,8.052,94.383,94.383,0,0,1,18.922,12.323,73.412,73.412,0,0,1,13.823,15.508,88.737,88.737,0,0,1,9.036,17.621,106.266,106.266,0,0,1,5.416,20.3,139.267,139.267,0,0,1,2.4,19.234c.531,7.83.8,17.248.8,27.993v.5H578.245a116.079,116.079,0,0,0,4.307,28.691A80.483,80.483,0,0,0,587.2-54.094a67.869,67.869,0,0,0,6.307,10.563,45.013,45.013,0,0,0,8.085,8.512,44.94,44.94,0,0,0,10.036,6.079,54.745,54.745,0,0,0,12.01,3.654,76.276,76.276,0,0,0,14,1.221,73.885,73.885,0,0,0,13.278-1.152,58.859,58.859,0,0,0,11.844-3.453,53,53,0,0,0,10.424-5.75,55.483,55.483,0,0,0,9.017-8.053,61.984,61.984,0,0,0,8.12-11.537,64.025,64.025,0,0,0,5.35-13.227l.1-.364h36.29l-.066.559a58.791,58.791,0,0,1-3.046,12.564,96.767,96.767,0,0,1-6.3,13.877,110.537,110.537,0,0,1-8.4,13.216,80.956,80.956,0,0,1-9.37,10.575h0a80.581,80.581,0,0,1-18.43,13.457A91.435,91.435,0,0,1,664.118,4.88a124.255,124.255,0,0,1-29.474,3.209,100.189,100.189,0,0,1-19.306-1.826A88.534,88.534,0,0,1,597.552.784,89.009,89.009,0,0,1,581.3-8.348a101.7,101.7,0,0,1-14.714-12.776A90.32,90.32,0,0,1,554.37-37.2a100.172,100.172,0,0,1-8.718-18.986,125.259,125.259,0,0,1-5.226-21.887,168.753,168.753,0,0,1-1.741-24.781,167.061,167.061,0,0,1,1.753-24.626,131.982,131.982,0,0,1,5.263-22.214,112.549,112.549,0,0,1,8.776-19.8,106.727,106.727,0,0,1,12.29-17.369A97.621,97.621,0,0,1,581.9-200.994a88.33,88.33,0,0,1,17.3-10.1,92.91,92.91,0,0,1,19.451-6.062A112.151,112.151,0,0,1,640.237-219.179ZM734-95.96c-.017-21.177-1.088-36.829-3.184-46.525l0-.023a105.29,105.29,0,0,0-5.366-20.125,87.753,87.753,0,0,0-8.936-17.425,72.43,72.43,0,0,0-13.638-15.3,93.382,93.382,0,0,0-18.722-12.191,102.281,102.281,0,0,0-21.612-7.975,94.9,94.9,0,0,0-22.3-2.657,111.153,111.153,0,0,0-21.4,2,91.958,91.958,0,0,0-19.242,6,87.335,87.335,0,0,0-17.1,9.99A96.622,96.622,0,0,0,567.521-186.2a105.738,105.738,0,0,0-12.175,17.206,111.573,111.573,0,0,0-8.7,19.62,130.953,130.953,0,0,0-5.222,22.046,166.024,166.024,0,0,0-1.742,24.478,167.8,167.8,0,0,0,1.729,24.634A124.282,124.282,0,0,0,546.6-56.5a99.158,99.158,0,0,0,8.631,18.8,89.306,89.306,0,0,0,12.077,15.894,100.7,100.7,0,0,0,14.568,12.65A88.01,88.01,0,0,0,597.947-.135a87.539,87.539,0,0,0,17.586,5.417,99.213,99.213,0,0,0,19.113,1.807,123.251,123.251,0,0,0,29.238-3.181l.007,0a90.426,90.426,0,0,0,22.1-8.143,79.6,79.6,0,0,0,18.209-13.3l.007-.007a80,80,0,0,0,9.253-10.444,109.515,109.515,0,0,0,8.324-13.1,95.739,95.739,0,0,0,6.234-13.732,58.48,58.48,0,0,0,2.926-11.79h-34.4A64.96,64.96,0,0,1,691.2-53.532a63,63,0,0,1-8.253,11.726,56.484,56.484,0,0,1-9.183,8.2,54,54,0,0,1-10.62,5.858A59.848,59.848,0,0,1,651.1-24.234a74.881,74.881,0,0,1-13.458,1.169A77.283,77.283,0,0,1,623.456-24.3a55.742,55.742,0,0,1-12.229-3.722,45.944,45.944,0,0,1-10.259-6.215,46.02,46.02,0,0,1-8.266-8.7,68.824,68.824,0,0,1-6.4-10.718,81.459,81.459,0,0,1-4.71-12.327,117.56,117.56,0,0,1-4.363-29.458l-.016-.515Zm629.729-123.219a103.777,103.777,0,0,1,21.021,2,68.05,68.05,0,0,1,17.352,6,53.35,53.35,0,0,1,13.658,10.017,55.646,55.646,0,0,1,9.925,14.018,77.088,77.088,0,0,1,6.636,21.257,167.108,167.108,0,0,1,2.2,28.695V.5h-37.546V-134.8a98.313,98.313,0,0,0-1.44-17.584,54.161,54.161,0,0,0-4.3-13.753,36.369,36.369,0,0,0-5.688-8.62,30.946,30.946,0,0,0-7.591-6.142,35.255,35.255,0,0,0-9.526-3.691,50.513,50.513,0,0,0-11.494-1.235c-8.43,0-15.434.866-20.818,2.573l-.009,0a49.839,49.839,0,0,0-13.742,6.525,59.8,59.8,0,0,0-11.982,10.893,61.14,61.14,0,0,0-7.354,10.671,46.169,46.169,0,0,0-4.223,10.99c-1.78,7.449-2.682,18.262-2.682,32.136V.5H1259.18V-214.386h35.15v29.453a116.3,116.3,0,0,1,14.806-15.107,80.517,80.517,0,0,1,16.63-10.9,81.135,81.135,0,0,1,18.035-6.179A94.214,94.214,0,0,1,1363.727-219.179ZM1433.524-.5V-137.2a166.144,166.144,0,0,0-2.189-28.521,76.113,76.113,0,0,0-6.544-20.98,54.639,54.639,0,0,0-9.746-13.768,52.344,52.344,0,0,0-13.4-9.829,67.061,67.061,0,0,0-17.1-5.908,102.765,102.765,0,0,0-20.818-1.974,93.232,93.232,0,0,0-19.715,2.036,80.149,80.149,0,0,0-17.812,6.1,79.52,79.52,0,0,0-16.422,10.767,116.674,116.674,0,0,0-15.56,16.057l-.889,1.1v-31.269h-33.15V-.5h34.947V-112.036c0-13.953.912-24.843,2.71-32.369a47.15,47.15,0,0,1,4.314-11.228,62.145,62.145,0,0,1,7.474-10.848,60.805,60.805,0,0,1,12.183-11.074,50.836,50.836,0,0,1,14.017-6.656h0c5.481-1.737,12.584-2.617,21.112-2.617a51.515,51.515,0,0,1,11.722,1.261,36.253,36.253,0,0,1,9.8,3.8,31.94,31.94,0,0,1,7.836,6.34,37.351,37.351,0,0,1,5.846,8.855,55.141,55.141,0,0,1,4.385,14.006,99.3,99.3,0,0,1,1.456,17.764V-.5Zm556.136-213.886h37.746V-71.894a78.226,78.226,0,0,0,1.289,14.783,45.839,45.839,0,0,0,3.851,11.754,33.834,33.834,0,0,0,5.743,8.266,30.941,30.941,0,0,0,7.775,5.9,37.828,37.828,0,0,0,9.843,3.547,56.418,56.418,0,0,0,11.938,1.187,66.956,66.956,0,0,0,17.146-2.08,48.281,48.281,0,0,0,14.133-6.226,46.447,46.447,0,0,0,11.163-10.373,60.869,60.869,0,0,0,8.219-14.559,92.175,92.175,0,0,0,5.51-21.205,190.952,190.952,0,0,0,1.842-27.935V-214.386h36.947V.5h-34.956l.006-.506.376-29.674A76.107,76.107,0,0,1,2121.3-20a71.018,71.018,0,0,1-9.6,9.4,73.794,73.794,0,0,1-10.907,7.388,72.9,72.9,0,0,1-12.015,5.278,79.25,79.25,0,0,1-13.114,3.166,93.437,93.437,0,0,1-14.206,1.054,109.115,109.115,0,0,1-21.142-1.919A71.44,71.44,0,0,1,2022.792-1.4a54.81,54.81,0,0,1-13.881-9.637,54.978,54.978,0,0,1-10.2-13.49,68.853,68.853,0,0,1-6.79-19.26,123.893,123.893,0,0,1-2.257-24.714Zm36.746,1h-35.746V-68.5a122.887,122.887,0,0,0,2.236,24.513A67.852,67.852,0,0,0,1999.585-25,53.993,53.993,0,0,0,2009.6-11.756a53.818,53.818,0,0,0,13.629,9.46,70.442,70.442,0,0,0,17.276,5.688,108.151,108.151,0,0,0,20.947,1.9,92.472,92.472,0,0,0,14.053-1.042,78.277,78.277,0,0,0,12.948-3.125,71.926,71.926,0,0,0,11.85-5.206,72.812,72.812,0,0,0,10.76-7.289,70.017,70.017,0,0,0,9.469-9.272,75.726,75.726,0,0,0,7.787-11.16l.958-1.67L2128.864-.5h32.944V-213.386H2126.86V-108.84a191.983,191.983,0,0,1-1.853,28.083,93.168,93.168,0,0,1-5.574,21.435,61.853,61.853,0,0,1-8.356,14.8,47.442,47.442,0,0,1-11.4,10.6,49.27,49.27,0,0,1-14.425,6.356,67.943,67.943,0,0,1-17.4,2.114,57.41,57.41,0,0,1-12.151-1.21,38.849,38.849,0,0,1-10.1-3.643,31.951,31.951,0,0,1-8.026-6.087,34.838,34.838,0,0,1-5.914-8.509,46.855,46.855,0,0,1-3.938-12.011,79.25,79.25,0,0,1-1.307-14.973Zm-870.363,0h37.547V.5h-37.547Zm36.547,1h-35.547V-.5h35.547ZM1836.5-189.223a76.46,76.46,0,0,1,17.313,1.86,55.061,55.061,0,0,1,14.586,5.593,49.341,49.341,0,0,1,11.828,9.331,57.755,57.755,0,0,1,9.041,13.043,82.971,82.971,0,0,1,7.235,21.7,142.343,142.343,0,0,1,2.406,27.257,147.678,147.678,0,0,1-3.332,31.736,127.517,127.517,0,0,1-10,28.7,49.467,49.467,0,0,1-8.127,11.959,44.05,44.05,0,0,1-10.977,8.553,52.156,52.156,0,0,1-13.793,5.124,76.039,76.039,0,0,1-16.579,1.7,77.466,77.466,0,0,1-15.277-1.433,56.018,56.018,0,0,1-13.1-4.308,47.49,47.49,0,0,1-10.9-7.19,50.049,50.049,0,0,1-8.675-10.061,82.435,82.435,0,0,1-6.593-12.169,92.622,92.622,0,0,1-4.707-13.591,123.935,123.935,0,0,1-3.761-31.431,138.5,138.5,0,0,1,3.759-33.071,108.008,108.008,0,0,1,4.7-14.6,97.787,97.787,0,0,1,6.587-13.3,53.635,53.635,0,0,1,8.694-11.112,47.458,47.458,0,0,1,10.975-7.947,53.1,53.1,0,0,1,13.23-4.764A71.911,71.911,0,0,1,1836.5-189.223Zm-.4,165.557a75.051,75.051,0,0,0,16.36-1.679,51.157,51.157,0,0,0,13.529-5.024,43.041,43.041,0,0,0,10.728-8.359,48.468,48.468,0,0,0,7.962-11.718,126.52,126.52,0,0,0,9.921-28.47,146.682,146.682,0,0,0,3.308-31.521,141.342,141.342,0,0,0-2.387-27.064,81.98,81.98,0,0,0-7.144-21.437,56.752,56.752,0,0,0-8.882-12.817,48.349,48.349,0,0,0-11.588-9.142,54.069,54.069,0,0,0-14.322-5.49,75.468,75.468,0,0,0-17.086-1.834,70.913,70.913,0,0,0-15.245,1.561,52.112,52.112,0,0,0-12.981,4.673,46.463,46.463,0,0,0-10.743,7.78A52.656,52.656,0,0,0,1789-163.3a96.777,96.777,0,0,0-6.519,13.163,106.977,106.977,0,0,0-4.659,14.461,137.514,137.514,0,0,0-3.73,32.832,122.934,122.934,0,0,0,3.728,31.177,91.588,91.588,0,0,0,4.655,13.444,81.425,81.425,0,0,0,6.513,12.021,49.037,49.037,0,0,0,8.5,9.86,46.491,46.491,0,0,0,10.669,7.039,55.027,55.027,0,0,0,12.864,4.229A76.44,76.44,0,0,0,1836.1-23.666ZM881.171-188.025a63.749,63.749,0,0,1,17.261,2.228,48.173,48.173,0,0,1,14.378,6.7,49.33,49.33,0,0,1,11.45,11.159,67.637,67.637,0,0,1,8.5,15.58,98.051,98.051,0,0,1,5.57,20.271,144.636,144.636,0,0,1,1.854,23.848A176.043,176.043,0,0,1,939.14-88.52,120.382,120.382,0,0,1,936-71.392a83.9,83.9,0,0,1-5.243,14.535A62.513,62.513,0,0,1,923.4-44.923a64.069,64.069,0,0,1-8.939,9.29,51.93,51.93,0,0,1-10.026,6.648,48.978,48.978,0,0,1-11.1,3.991,54.675,54.675,0,0,1-12.163,1.329,67.715,67.715,0,0,1-17.253-2.088,49.66,49.66,0,0,1-14.373-6.28A48.063,48.063,0,0,1,838.093-42.5a62.393,62.393,0,0,1-8.507-14.621,88.592,88.592,0,0,1-5.574-19.33,134,134,0,0,1-1.855-23,196.98,196.98,0,0,1,1.852-28.131,112.919,112.919,0,0,1,5.568-22.768A71.971,71.971,0,0,1,838-166.806a50.277,50.277,0,0,1,11.423-11.787,47,47,0,0,1,14.406-7.078A61.022,61.022,0,0,1,881.171-188.025Zm0,163.36a53.666,53.666,0,0,0,11.94-1.3,47.972,47.972,0,0,0,10.877-3.909,50.947,50.947,0,0,0,9.832-6.52,63.081,63.081,0,0,0,8.8-9.145,61.468,61.468,0,0,0,7.236-11.743,82.883,82.883,0,0,0,5.179-14.361,119.406,119.406,0,0,0,3.113-16.985,175.022,175.022,0,0,0,1.039-19.608,143.661,143.661,0,0,0-1.84-23.682,97.1,97.1,0,0,0-5.513-20.067,66.658,66.658,0,0,0-8.375-15.352,48.339,48.339,0,0,0-11.217-10.934,47.175,47.175,0,0,0-14.08-6.558,62.745,62.745,0,0,0-16.989-2.191,60.028,60.028,0,0,0-17.057,2.313,46.011,46.011,0,0,0-14.1,6.927,49.276,49.276,0,0,0-11.194,11.554,70.953,70.953,0,0,0-8.3,16.224A111.89,111.89,0,0,0,825-127.441a195.917,195.917,0,0,0-1.842,27.987A133.039,133.039,0,0,0,825-76.624a87.62,87.62,0,0,0,5.51,19.113,61.4,61.4,0,0,0,8.369,14.388A47.066,47.066,0,0,0,850.09-32.872a48.664,48.664,0,0,0,14.085,6.152A66.711,66.711,0,0,0,881.171-24.664ZM398.3-187.825a75.723,75.723,0,0,1,16.146,1.634,54.4,54.4,0,0,1,13.693,4.914,47.3,47.3,0,0,1,11.215,8.2,52.7,52.7,0,0,1,8.708,11.467,70.723,70.723,0,0,1,6.588,16.442,125.535,125.535,0,0,1,3.66,21.1l.052.547H338.472l.019-.518a84.854,84.854,0,0,1,1.494-13.253,70.44,70.44,0,0,1,3.482-12.049,63.844,63.844,0,0,1,5.472-10.838,64.329,64.329,0,0,1,7.459-9.617,60.86,60.86,0,0,1,8.961-7.884,53.8,53.8,0,0,1,9.979-5.638,54.266,54.266,0,0,1,10.985-3.382A62.364,62.364,0,0,1,398.3-187.825Zm58.963,63.307a123.721,123.721,0,0,0-3.577-20.388,69.722,69.722,0,0,0-6.492-16.209,51.712,51.712,0,0,0-8.542-11.251,46.31,46.31,0,0,0-10.978-8.027,53.4,53.4,0,0,0-13.442-4.822,74.717,74.717,0,0,0-15.932-1.611,61.376,61.376,0,0,0-11.786,1.108,53.269,53.269,0,0,0-10.782,3.32,52.808,52.808,0,0,0-9.793,5.533,59.86,59.86,0,0,0-8.813,7.755,63.357,63.357,0,0,0-7.344,9.467,62.85,62.85,0,0,0-5.386,10.668,69.464,69.464,0,0,0-3.432,11.878,83.494,83.494,0,0,0-1.456,12.578ZM638.04-187.825a75.718,75.718,0,0,1,16.146,1.634,54.4,54.4,0,0,1,13.693,4.914,47.3,47.3,0,0,1,11.215,8.2,52.716,52.716,0,0,1,8.708,11.467,70.734,70.734,0,0,1,6.588,16.442,125.535,125.535,0,0,1,3.66,21.1l.051.547H578.209l.019-.518a84.913,84.913,0,0,1,1.494-13.253,70.463,70.463,0,0,1,3.483-12.049,63.826,63.826,0,0,1,5.472-10.838,64.329,64.329,0,0,1,7.459-9.617,60.86,60.86,0,0,1,8.961-7.884,53.8,53.8,0,0,1,9.978-5.638,54.264,54.264,0,0,1,10.985-3.382A62.364,62.364,0,0,1,638.04-187.825ZM697-124.518a123.722,123.722,0,0,0-3.577-20.388,69.722,69.722,0,0,0-6.492-16.209,51.709,51.709,0,0,0-8.542-11.251,46.3,46.3,0,0,0-10.978-8.027,53.4,53.4,0,0,0-13.442-4.822,74.716,74.716,0,0,0-15.932-1.611,61.373,61.373,0,0,0-11.786,1.108,53.27,53.27,0,0,0-10.783,3.32,52.816,52.816,0,0,0-9.793,5.533,59.852,59.852,0,0,0-8.813,7.755,63.341,63.341,0,0,0-7.344,9.467,62.832,62.832,0,0,0-5.386,10.668A69.486,69.486,0,0,0,580.7-137.1a83.526,83.526,0,0,0-1.456,12.578Z" transform="translate(-30.654 294.868)" fill="#fff" opacity="0.1"/>
</svg>
